SplineFontDB: 3.2
FontName: Untitled1
FullName: Untitled1
FamilyName: Untitled1
Weight: Regular
Copyright: Copyright (c) 2022, marc
UComments: "2022-1-29: Created with FontForge (http://fontforge.org)"
Version: 001.000
ItalicAngle: 0
UnderlinePosition: -100
UnderlineWidth: 50
Ascent: 800
Descent: 200
InvalidEm: 0
LayerCount: 2
Layer: 0 0 "Hinten" 1
Layer: 1 0 "Vorne" 0
XUID: [1021 490 -1702246037 17971]
StyleMap: 0x0000
FSType: 0
OS2Version: 0
OS2_WeightWidthSlopeOnly: 0
OS2_UseTypoMetrics: 1
CreationTime: 1643493304
ModificationTime: 1643510062
OS2TypoAscent: 0
OS2TypoAOffset: 1
OS2TypoDescent: 0
OS2TypoDOffset: 1
OS2TypoLinegap: 90
OS2WinAscent: 0
OS2WinAOffset: 1
OS2WinDescent: 0
OS2WinDOffset: 1
HheadAscent: 0
HheadAOffset: 1
HheadDescent: 0
HheadDOffset: 1
DEI: 91125
Encoding: ISO8859-1
UnicodeInterp: none
NameList: AGL For New Fonts
DisplaySize: -48
AntiAlias: 1
FitToEm: 0
WinInfo: 0 19 8
BeginChars: 256 52

StartChar: a
Encoding: 97 97 0
Width: 266
Flags: HW
LayerCount: 2
Fore
SplineSet
128.16015625 474.083984375 m 0
 150.188476562 473.194335938 170.834960938 464.990234375 186.251953125 450.78515625 c 0
 216.774414062 422.661132812 222.282226562 377.5546875 221.140625 338.720703125 c 1
 231.723632812 315.25 237.799804688 284.901367188 237.609375 246.931640625 c 1
 210.611328125 247.068359375 l 1
 210.676757812 260.060546875 209.81640625 271.541015625 208.46875 282.162109375 c 1
 199.780273438 269.737304688 186.663085938 259.872070312 171.005859375 254.001953125 c 0
 145.328125 244.375976562 112.47265625 244.979492188 78.59375 260.6875 c 0
 57.361328125 270.532226562 42.578125 282.350585938 33.8359375 296.146484375 c 0
 25.09375 309.942382812 23.1982421875 325.760742188 27.02734375 339.677734375 c 0
 34.6865234375 367.510742188 61.0205078125 388.013671875 91.80859375 397.48828125 c 0
 122.596679688 406.962890625 159.80859375 404.81640625 189.162109375 381.30078125 c 0
 189.732421875 380.84375 190.2734375 380.329101562 190.8359375 379.857421875 c 1
 187.290039062 400.709960938 180.31640625 419.541992188 167.95703125 430.9296875 c 0
 140.034179688 456.658203125 83.3369140625 458.643554688 47.5546875 397.81640625 c 1
 24.283203125 411.505859375 l 1
 50.888671875 456.734375 91.4453125 475.567382812 128.16015625 474.083984375 c 0
127.619140625 375.794921875 m 0
 118.190429688 375.92578125 108.737304688 374.447265625 99.75 371.681640625 c 0
 75.783203125 364.306640625 57.09765625 347.190429688 53.05859375 332.513671875 c 0
 51.0390625 325.17578125 51.6240234375 318.517578125 56.642578125 310.59765625 c 0
 61.6611328125 302.677734375 71.9169921875 293.544921875 89.951171875 285.18359375 c 0
 118.05859375 272.151367188 143.28125 272.442382812 161.529296875 279.283203125 c 0
 179.706054688 286.09765625 190.450195312 298.9921875 192.396484375 312.396484375 c 0
 193.07421875 319.098632812 193.458007812 326.297851562 193.66796875 333.646484375 c 0
 187.547851562 345.21484375 180.19140625 353.891601562 172.28125 360.228515625 c 0
 158.977539062 370.88671875 143.333007812 375.577148438 127.619140625 375.794921875 c 0
EndSplineSet
Validated: 33
EndChar

StartChar: b
Encoding: 98 98 1
Width: 220
Flags: HW
LayerCount: 2
Fore
SplineSet
102.984375 443.34765625 m 0
 146.640625 443.34765625 173.48046875 403.569335938 173.48046875 359.497070312 c 0
 173.48046875 316.654296875 148.443359375 276.041015625 88.9423828125 276.041015625 c 0
 73.1474609375 276.041015625 54.5224609375 278.969726562 33.0078125 285.899414062 c 1
 24.728515625 260.1953125 l 1
 48.4248046875 252.5625 69.7646484375 249.041015625 88.9423828125 249.041015625 c 0
 164.984375 249.041015625 200.48046875 305.318359375 200.48046875 359.497070312 c 0
 200.48046875 412.708007812 166.45703125 470.34765625 102.984375 470.34765625 c 0
 78.26953125 470.34765625 50.74609375 461.42578125 20.8623046875 441.762695312 c 1
 35.703125 419.208007812 l 1
 62.3837890625 436.764648438 84.962890625 443.34765625 102.984375 443.34765625 c 0
51.107421875 249.279296875 m 1
 47.7216796875 331.8125 50.7470703125 423.6875 50.7470703125 509.739257812 c 0
 50.7470703125 580.431640625 49.3955078125 651.708007812 43.4384765625 714.29296875 c 1
 43.4384765625 714.29296875 16.55859375 711.734375 16.5615234375 711.70703125 c 0
 27.4296875 597.528320312 22.732421875 458.127929688 22.732421875 334.305664062 c 0
 22.732421875 303.174804688 23.0654296875 274.103515625 24.1298828125 248.172851562 c 1
 51.107421875 249.279296875 l 1
EndSplineSet
Validated: 37
EndChar

StartChar: c
Encoding: 99 99 2
Width: 295
Flags: HW
LayerCount: 2
Fore
SplineSet
272.53125 361.231445312 m 1
 274.731445312 428.385742188 218.37890625 463.405273438 161.598632812 463.405273438 c 0
 111.556640625 463.405273438 56.8447265625 437.297851562 29.9228515625 381.09765625 c 0
 24.177734375 369.103515625 21.359375 357.104492188 21.359375 345.448242188 c 0
 21.359375 324.170898438 30.7421875 305.512695312 44.755859375 290.739257812 c 0
 72.611328125 261.37109375 119.247070312 244.986328125 163.072265625 244.986328125 c 0
 211.645507812 244.986328125 262.118164062 267.01171875 271.78515625 323.182617188 c 1
 245.172851562 327.76171875 l 1
 238.545898438 289.25390625 205.229492188 271.986328125 163.072265625 271.986328125 c 0
 125.6015625 271.986328125 85.369140625 287.147460938 64.3447265625 309.3125 c 0
 47.9833984375 326.5625 43.17578125 346.259765625 54.2880859375 369.45703125 c 0
 76.1416015625 415.078125 120.474609375 436.405273438 161.598632812 436.405273438 c 0
 208.948242188 436.405273438 247.104492188 409.6953125 245.546875 362.129882812 c 1
 272.53125 361.231445312 l 1
EndSplineSet
Validated: 41
EndChar

StartChar: d
Encoding: 100 100 3
Width: 262
Flags: HW
LayerCount: 2
Fore
SplineSet
117.856445312 462.32421875 m 0
 98.8076171875 462.32421875 78.630859375 457.34765625 61.5732421875 444.37890625 c 0
 40.0380859375 428.004882812 25.486328125 400.0703125 23.6171875 359.666015625 c 0
 20.880859375 300.497070312 73.388671875 247.732421875 132.212890625 247.732421875 c 0
 163.649414062 247.732421875 196.137695312 263.272460938 222.310546875 298.340820312 c 1
 222.310546875 298.340820312 200.67578125 314.48828125 200.66015625 314.467773438 c 0
 178.6796875 285.017578125 154.388671875 274.732421875 132.212890625 274.732421875 c 0
 89.0400390625 274.732421875 48.6083984375 315.590820312 50.587890625 358.400390625 c 0
 52.1923828125 393.075195312 63.88671875 412.224609375 77.892578125 422.873046875 c 0
 91.9794921875 433.583007812 109.462890625 437.278320312 129.455078125 434.518554688 c 0
 145.298828125 432.33203125 164.87890625 422.28515625 179.137695312 407.884765625 c 0
 190.546875 396.362304688 198.1328125 382.64453125 199.583007812 369.102539062 c 1
 199.583007812 369.102539062 226.431640625 371.977539062 226.428710938 372.004882812 c 0
 224.139648438 393.3828125 212.862304688 412.190429688 198.321289062 426.876953125 c 0
 180.141601562 445.23828125 156.211914062 458.084960938 133.173828125 461.264648438 c 0
 128.178710938 461.954101562 123.055664062 462.32421875 117.856445312 462.32421875 c 0
209.229492188 713.669921875 m 1
 201.456054688 554.84375 199.62890625 407.588867188 203.359375 246.681640625 c 1
 230.3515625 247.307617188 l 1
 226.635742188 407.6171875 228.451171875 554.069335938 236.196289062 712.330078125 c 1
 209.229492188 713.669921875 l 1
EndSplineSet
Validated: 37
EndChar

StartChar: e
Encoding: 101 101 4
Width: 270
Flags: HW
LayerCount: 2
Fore
SplineSet
148.919921875 466.796875 m 0
 173.879882812 466.446289062 198.516601562 459.318359375 216.90625 442.96875 c 0
 235.295898438 426.619140625 246.211914062 400.955078125 244.24609375 368.623046875 c 2
 243.46875 355.8203125 l 1
 230.66015625 356.52734375 l 2
 174.416015625 359.637695312 87.1962890625 359.84375 48.041015625 359.103515625 c 1
 47.068359375 341.77734375 51.330078125 327.184570312 58.9921875 314.92578125 c 0
 70.296875 296.840820312 89.5625 283.653320312 111.134765625 277.33984375 c 0
 132.70703125 271.026367188 156.224609375 271.768554688 175.109375 280.037109375 c 0
 193.994140625 288.305664062 208.639648438 303.318359375 214.853515625 328.830078125 c 1
 239.91796875 322.7265625 l 1
 231.94921875 290.008789062 210.862304688 267.530273438 185.45703125 256.40625 c 0
 160.051757812 245.282226562 130.724609375 244.727539062 103.888671875 252.58203125 c 0
 77.052734375 260.436523438 52.3505859375 276.880859375 37.1171875 301.251953125 c 0
 21.8837890625 325.623046875 16.9716796875 357.890625 28.62890625 393.685546875 c 0
 44.3388671875 441.923828125 99 467.498046875 148.919921875 466.796875 c 0
148.556640625 441.001953125 m 0
 108.086914062 441.5703125 63.9541015625 418.846679688 53.158203125 385.697265625 c 0
 53.0869140625 385.4765625 53.05078125 385.274414062 52.98046875 385.0546875 c 1
 93.0556640625 385.709960938 163.958984375 385.270507812 218.40625 382.796875 c 1
 217.14453125 401.678710938 210.114257812 414.489257812 199.765625 423.689453125 c 0
 187.249023438 434.817382812 168.791015625 440.717773438 148.556640625 441.001953125 c 0
EndSplineSet
Validated: 33
EndChar

StartChar: f
Encoding: 102 102 5
Width: 156
Flags: HW
LayerCount: 2
Fore
SplineSet
88.8291015625 713.748046875 m 0
 80.884765625 713.748046875 74.611328125 709.240234375 70.662109375 704.337890625 c 0
 62.9365234375 694.748046875 59.458984375 681.178710938 56.5498046875 664.333984375 c 0
 51.0654296875 632.5703125 49.3173828125 587.15625 49.3173828125 537.342773438 c 0
 49.3173828125 464.634765625 53.2119140625 382.866210938 55.99609375 324.322265625 c 0
 57.548828125 291.666992188 58.7490234375 266.044921875 58.7490234375 254.103515625 c 0
 58.7490234375 251.170898438 58.6376953125 248.997070312 58.5849609375 248.536132812 c 1
 83.486328125 245.671875 l 1
 83.7705078125 248.14453125 83.8125 250.688476562 83.8125 254.103515625 c 0
 83.8125 267.396484375 82.5888671875 292.765625 81.0302734375 325.530273438 c 0
 78.248046875 384.036132812 74.3798828125 465.508789062 74.3798828125 537.342773438 c 0
 74.3798828125 581.008789062 75.845703125 621.1796875 79.69921875 649.875 c 0
 81.4072265625 662.599609375 83.623046875 673.048828125 86.0634765625 680.091796875 c 0
 87.3251953125 683.735351562 88.6796875 686.264648438 89.6064453125 687.719726562 c 1
 91.6298828125 686.043945312 95.4423828125 682.220703125 99.9736328125 675.2109375 c 0
 107.58203125 663.440429688 117.114257812 644.086914062 128.200195312 616.389648438 c 1
 151.479492188 625.688476562 l 1
 138.623046875 657.807617188 127.754882812 679.6640625 117.62890625 693.811523438 c 0
 110.033203125 704.424804688 101.455078125 713.748046875 88.8291015625 713.748046875 c 0
49.83984375 443.016601562 m 0
 67.427734375 443.016601562 71.97265625 450.78515625 88.759765625 450.78515625 c 0
 92.1845703125 450.78515625 96.3603515625 450.484375 101.556640625 449.66796875 c 1
 105.748046875 476.328125 l 1
 99.392578125 477.328125 93.7998046875 477.770507812 88.759765625 477.770507812 c 0
 76.259765625 477.770507812 67.3525390625 474.7421875 61.375 472.640625 c 0
 56.2607421875 470.842773438 53.7333984375 470.001953125 49.83984375 470.001953125 c 0
 45.8916015625 470.001953125 39.4736328125 471.048828125 28.412109375 475.516601562 c 1
 28.412109375 475.516601562 18.3046875 450.491210938 18.322265625 450.483398438 c 0
 31.2080078125 445.279296875 41.015625 443.016601562 49.83984375 443.016601562 c 0
EndSplineSet
Validated: 524293
EndChar

StartChar: g
Encoding: 103 103 6
Width: 242
Flags: HW
LayerCount: 2
Fore
SplineSet
127.90234375 271.159179688 m 0
 92.1171875 271.159179688 53.4931640625 298.772460938 47.01171875 340.592773438 c 0
 46.05859375 346.745117188 45.6181640625 352.55859375 45.6181640625 358.03125 c 0
 45.6181640625 409.57421875 84.6962890625 436.705078125 123.793945312 436.705078125 c 0
 153.81640625 436.705078125 181.836914062 420.8359375 191.592773438 386.376953125 c 0
 192.688476562 376.922851562 193.198242188 368.150390625 193.198242188 360.046875 c 0
 193.198242188 329.836914062 186.130859375 308.971679688 176.268554688 295.356445312 c 0
 164.079101562 278.529296875 146.751953125 271.159179688 127.90234375 271.159179688 c 0
123.793945312 463.705078125 m 0
 72.40234375 463.705078125 18.6181640625 426.178710938 18.6181640625 358.03125 c 0
 18.6181640625 351.080078125 19.177734375 343.877929688 20.33203125 336.430664062 c 0
 29.046875 280.196289062 79.6494140625 244.159179688 127.90234375 244.159179688 c 0
 154.173828125 244.159179688 180.47265625 255.139648438 198.1484375 279.541992188 c 0
 212.178710938 298.91015625 220.198242188 325.670898438 220.198242188 360.046875 c 0
 220.198242188 369.626953125 219.576171875 379.802734375 218.283203125 390.611328125 c 1
 204.994140625 389.020507812 l 1
 217.912109375 392.5234375 l 1
 204.88671875 440.568359375 164.04296875 463.705078125 123.793945312 463.705078125 c 0
21.068359375 45.9892578125 m 0
 21.068359375 -56.2861328125 77.166015625 -110.2421875 134.077148438 -110.2421875 c 0
 151.86328125 -110.2421875 169.112304688 -104.815429688 183.399414062 -94.1005859375 c 0
 212.842773438 -72.0205078125 219.448242188 -34.3583984375 219.448242188 7.0205078125 c 0
 219.448242188 34.765625 216.37109375 65.544921875 213.145507812 98.1533203125 c 0
 205.936523438 171.052734375 199.383789062 249.4375 216.986328125 317.83203125 c 0
 222.76953125 340.299804688 225.439453125 370.368164062 217.669921875 393.319335938 c 1
 192.087890625 384.666992188 l 1
 197.873046875 367.579101562 195.235351562 341.665039062 190.8359375 324.572265625 c 0
 181.586914062 288.633789062 178.509765625 251.706054688 178.509765625 215.440429688 c 0
 178.509765625 173.796875 182.56640625 132.997070312 186.27734375 95.46875 c 0
 189.500976562 62.876953125 192.448242188 32.73046875 192.448242188 7.0205078125 c 0
 192.448242188 -32.7568359375 185.166015625 -59.03125 167.223632812 -72.4873046875 c 0
 157.850585938 -79.5166015625 146.314453125 -83.2421875 134.077148438 -83.2421875 c 0
 96.12109375 -83.2421875 48.068359375 -46.498046875 48.068359375 45.9892578125 c 0
 48.068359375 96.9462890625 57.2568359375 134.096679688 71.9169921875 158.92578125 c 0
 89.9794921875 189.517578125 116.360351562 203.139648438 150.125976562 203.139648438 c 0
 153.885742188 203.139648438 157.749023438 202.961914062 161.708007812 202.604492188 c 1
 164.166992188 229.493164062 l 1
 159.434570312 229.921875 154.752929688 230.139648438 150.125976562 230.139648438 c 0
 108.043945312 230.139648438 71.5205078125 211.358398438 48.650390625 172.625 c 0
 30.5654296875 141.99609375 21.068359375 100.057617188 21.068359375 45.9892578125 c 0
EndSplineSet
Validated: 524325
EndChar

StartChar: h
Encoding: 104 104 7
Width: 257
Flags: HW
LayerCount: 2
Fore
SplineSet
125.994140625 433.603515625 m 0
 167.786132812 433.603515625 202.452148438 397.764648438 202.452148438 321.484375 c 0
 202.452148438 299.25 199.330078125 273.817382812 192.360351562 245.5625 c 1
 218.577148438 239.083984375 l 1
 225.994140625 269.154296875 229.452148438 296.688476562 229.452148438 321.484375 c 0
 229.452148438 405.145507812 188.030273438 460.603515625 125.994140625 460.603515625 c 0
 96.9951171875 460.603515625 65.935546875 448.400390625 35.3681640625 424.431640625 c 1
 52.0087890625 403.173828125 l 1
 79.154296875 424.459960938 104.786132812 433.603515625 125.994140625 433.603515625 c 0
50.724609375 332.903320312 m 0
 50.724609375 460.680664062 57.7900390625 599.115234375 41.1318359375 714.935546875 c 1
 41.1318359375 714.935546875 14.4033203125 711.090820312 14.4072265625 711.064453125 c 0
 30.6669921875 598.01953125 23.724609375 458.62109375 23.724609375 332.903320312 c 0
 23.724609375 301.600585938 24.2294921875 272.333007812 25.8525390625 246.153320312 c 1
 25.8525390625 246.153320312 52.8017578125 247.82421875 52.7998046875 247.846679688 c 0
 51.232421875 273.125976562 50.724609375 301.903320312 50.724609375 332.903320312 c 0
EndSplineSet
Validated: 37
EndChar

StartChar: i
Encoding: 105 105 8
Width: 84
Flags: HW
LayerCount: 2
Fore
SplineSet
51.6494140625 243.65625 m 1
 51.6494140625 287.020507812 55.814453125 331.767578125 55.814453125 376.041992188 c 0
 55.814453125 405.643554688 54.0556640625 435.703125 48.099609375 465.64453125 c 1
 21.6142578125 460.375976562 l 1
 27.0986328125 432.803710938 28.814453125 404.553710938 28.814453125 376.041992188 c 0
 28.814453125 332.125 24.6494140625 287.428710938 24.6494140625 243.65625 c 1
 51.6494140625 243.65625 l 1
47.3759765625 577.1484375 m 0
 47.3759765625 576.892578125 46.123046875 573.239257812 38.9228515625 573.239257812 c 0
 33.09375 573.239257812 33.734375 574.828125 33.734375 575.439453125 c 0
 33.734375 577.115234375 34.9306640625 581.932617188 40.125 589.443359375 c 1
 46.3408203125 582.573242188 47.3759765625 578.215820312 47.3759765625 577.1484375 c 0
6.734375 575.439453125 m 0
 6.734375 554.594726562 25.5751953125 546.239257812 38.9228515625 546.239257812 c 0
 53.0703125 546.239257812 74.3759765625 554.912109375 74.3759765625 577.1484375 c 0
 74.3759765625 591.91796875 64.5927734375 605.654296875 47.15625 619.622070312 c 2
 37.3544921875 627.474609375 l 1
 28.8154296875 618.245117188 l 2
 14.359375 602.620117188 6.734375 588.977539062 6.734375 575.439453125 c 0
EndSplineSet
Validated: 524297
EndChar

StartChar: j
Encoding: 106 106 9
Width: 104
Flags: HW
LayerCount: 2
Fore
SplineSet
7.875 -117 m 1025
28.6923828125 344.551757812 m 0
 28.6923828125 293.15625 30.6103515625 240.875 33.9345703125 187.811523438 c 0
 36.912109375 140.266601562 40.5400390625 82.1552734375 40.5400390625 31.4228515625 c 0
 40.5400390625 -6.70703125 38.3203125 -40.8046875 32.9140625 -61.787109375 c 0
 28.0283203125 -80.75 23.173828125 -81.4560546875 23.173828125 -81.4560546875 c 2
 22.748046875 -81.4560546875 20.4677734375 -81.154296875 16.474609375 -78.376953125 c 0
 11.5546875 -74.9560546875 4.626953125 -68.1552734375 -3.560546875 -57.4677734375 c 1
 -25.005859375 -73.8642578125 l 1
 -15.8037109375 -85.8779296875 -7.4326171875 -94.634765625 1.0849609375 -100.55859375 c 0
 7.8408203125 -105.2578125 15.119140625 -108.456054688 23.173828125 -108.456054688 c 0
 45.2373046875 -108.456054688 54.349609375 -86.8271484375 59.0634765625 -68.533203125 c 0
 65.62109375 -43.078125 67.5400390625 -7.7529296875 67.5400390625 31.4228515625 c 0
 67.5400390625 104.552734375 60.3544921875 180.240234375 57.5810546875 247.564453125 c 0
 56.1806640625 281.56640625 55.6923828125 314.79296875 55.6923828125 344.551757812 c 0
 55.6923828125 412.6875 58.236328125 462.30078125 58.236328125 462.30078125 c 1
 31.271484375 463.69921875 l 1
 31.263671875 463.5390625 28.6923828125 413.248046875 28.6923828125 344.551757812 c 0
49.3447265625 572.821289062 m 0
 43.515625 572.821289062 44.15625 574.41015625 44.15625 575.021484375 c 0
 44.15625 576.697265625 45.3525390625 581.514648438 50.546875 589.025390625 c 1
 56.7626953125 582.155273438 57.7978515625 577.797851562 57.7978515625 576.73046875 c 0
 57.7978515625 576.474609375 56.544921875 572.821289062 49.3447265625 572.821289062 c 0
17.15625 575.021484375 m 0
 17.15625 554.176757812 35.9970703125 545.821289062 49.3447265625 545.821289062 c 0
 63.4921875 545.821289062 84.7978515625 554.494140625 84.7978515625 576.73046875 c 0
 84.7978515625 591.5 75.0146484375 605.236328125 57.578125 619.204101562 c 2
 47.7763671875 627.055664062 l 1
 39.2373046875 617.826171875 l 2
 24.78125 602.202148438 17.15625 588.559570312 17.15625 575.021484375 c 0
EndSplineSet
Validated: 524297
EndChar

StartChar: k
Encoding: 107 107 10
Width: 250
Flags: HW
LayerCount: 2
Fore
SplineSet
51.40234375 247.094726562 m 1
 50.3896484375 388.46875 48.2236328125 587.645507812 59.16015625 711.829101562 c 1
 32.2626953125 714.197265625 l 1
 21.1455078125 587.958984375 23.380859375 389.528320312 24.40234375 246.901367188 c 1
 51.40234375 247.094726562 l 1
77.2177734375 344.418945312 m 1
 127.692382812 380.606445312 173.587890625 417.015625 222.438476562 452.038085938 c 1
 206.708007812 473.978515625 l 1
 151.475585938 434.380859375 101.467773438 394.239257812 43.775390625 353.80078125 c 2
 24.6474609375 340.392578125 l 1
 45.806640625 330.500976562 l 1
 45.806640625 330.500976562 79.0830078125 315.1171875 206.065429688 235.551757812 c 1
 210.819335938 243.180664062 215.694335938 250.836914062 220.372070312 258.448242188 c 1
 142.779296875 307.06640625 99.4111328125 332.162109375 77.2177734375 344.418945312 c 1
EndSplineSet
Validated: 524325
EndChar

StartChar: l
Encoding: 108 108 11
Width: 145
Flags: HW
LayerCount: 2
Fore
SplineSet
55.451171875 344.295898438 m 0
 44.9033203125 453.189453125 54.9248046875 596.732421875 50.845703125 713.478515625 c 1
 23.8623046875 712.536132812 l 1
 26.3779296875 640.541015625 23.6298828125 561.25390625 23.6298828125 486.873046875 c 0
 23.6298828125 420.466796875 25.1025390625 357.291992188 32.171875 312.873046875 c 0
 35.921875 289.309570312 40.7060546875 270.329101562 50.9609375 257.651367188 c 0
 56.2158203125 251.155273438 64.146484375 245.806640625 73.861328125 245.806640625 c 0
 87.1318359375 245.806640625 97.76171875 254.338867188 107.764648438 265.74609375 c 1
 87.46875 283.544921875 l 1
 79 273.887695312 73.9296875 272.806640625 73.861328125 272.806640625 c 2
 73.861328125 272.806640625 74.068359375 272.21875 72.3681640625 274.133789062 c 0
 71.0693359375 275.59765625 69.20703125 278.536132812 67.4033203125 282.86328125 c 0
 62.2841796875 295.142578125 58.0927734375 317.03125 55.451171875 344.295898438 c 0
EndSplineSet
Validated: 524329
EndChar

StartChar: m
Encoding: 109 109 12
Width: 415
Flags: HW
LayerCount: 2
Fore
SplineSet
126.026367188 443.40625 m 0
 169.74609375 443.40625 205.793945312 405.958984375 205.793945312 327.708984375 c 0
 205.793945312 304.982421875 202.579101562 279.038085938 195.405273438 250.2734375 c 1
 221.604492188 243.7265625 l 1
 229.23828125 274.33203125 232.793945312 302.400390625 232.793945312 327.708984375 c 0
 232.793945312 413.510742188 189.865234375 470.40625 126.026367188 470.40625 c 0
 96.521484375 470.40625 64.892578125 458.168945312 33.732421875 434.00390625 c 1
 50.2578125 412.65625 l 1
 77.9765625 434.15234375 104.1953125 443.40625 126.026367188 443.40625 c 0
48.8427734375 285.61328125 m 0
 48.8427734375 348.00390625 55.837890625 407.84765625 38.4384765625 460.680664062 c 1
 12.7861328125 452.239257812 l 1
 28.306640625 405.11328125 21.8427734375 343.47265625 21.8427734375 285.61328125 c 0
 21.8427734375 271.267578125 22.357421875 257.650390625 24.140625 245.088867188 c 1
 24.140625 245.088867188 50.875 248.884765625 50.87109375 248.911132812 c 0
 49.37109375 259.48046875 48.8427734375 271.954101562 48.8427734375 285.61328125 c 0
285.221679688 439.809570312 m 0
 328.6484375 439.809570312 364.30859375 403.033203125 364.30859375 325.442382812 c 0
 364.30859375 302.799804688 361.09375 276.904296875 353.918945312 248.135742188 c 1
 380.118164062 241.588867188 l 1
 387.750976562 272.19140625 391.30859375 300.209960938 391.30859375 325.442382812 c 0
 391.30859375 410.655273438 348.657226562 466.809570312 285.221679688 466.809570312 c 0
 255.533203125 466.809570312 223.662109375 454.44921875 192.24609375 430.0859375 c 1
 208.771484375 408.73828125 l 1
 236.756835938 430.44140625 263.235351562 439.809570312 285.221679688 439.809570312 c 0
EndSplineSet
Validated: 524325
EndChar

StartChar: n
Encoding: 110 110 13
Width: 268
Flags: HW
LayerCount: 2
Fore
SplineSet
128.586914062 443.678710938 m 0
 172.458007812 443.678710938 208.442382812 406.516601562 208.442382812 328.249023438 c 0
 208.442382812 305.408203125 205.200195312 279.2890625 197.963867188 250.2734375 c 1
 224.163085938 243.7265625 l 1
 231.857421875 274.575195312 235.442382812 302.818359375 235.442382812 328.249023438 c 0
 235.442382812 414.137695312 192.465820312 470.678710938 128.586914062 470.678710938 c 0
 98.68359375 470.678710938 66.5703125 458.227539062 34.908203125 433.673828125 c 1
 51.43359375 412.326171875 l 1
 79.6650390625 434.219726562 106.385742188 443.678710938 128.586914062 443.678710938 c 0
49.9619140625 290.73046875 m 0
 49.9619140625 353.622070312 57.0146484375 413.970703125 39.4775390625 467.220703125 c 1
 13.8251953125 458.779296875 l 1
 22.3369140625 432.936523438 24.55859375 402.017578125 24.55859375 370.530273438 c 0
 24.55859375 344.107421875 22.9619140625 316.734375 22.9619140625 290.73046875 c 0
 22.9619140625 276.26953125 23.4814453125 262.545898438 25.2783203125 249.888671875 c 1
 25.2783203125 249.888671875 52.0126953125 253.68359375 52.0087890625 253.7109375 c 0
 50.4951171875 264.375 49.9619140625 276.956054688 49.9619140625 290.73046875 c 0
EndSplineSet
Validated: 524325
EndChar

StartChar: o
Encoding: 111 111 14
Width: 268
Flags: HW
LayerCount: 2
Fore
SplineSet
135.291015625 466.733398438 m 0
 195.844726562 466.733398438 237.75 425.140625 237.75 362.215820312 c 0
 237.75 345.786132812 235.065429688 327.669921875 229.317382812 307.713867188 c 0
 216.1796875 261.977539062 178.670898438 240.94140625 140.415039062 240.94140625 c 0
 84.04296875 240.94140625 21.5556640625 285.118164062 21.5556640625 356.849609375 c 0
 21.5556640625 367.336914062 22.9150390625 378.264648438 25.7734375 389.551757812 c 0
 38.5517578125 440.0078125 88.73046875 466.733398438 135.291015625 466.733398438 c 0
210.75 362.215820312 m 0
 210.75 393.615234375 199.104492188 413.26953125 183.000976562 425.168945312 c 0
 169.934570312 434.823242188 152.952148438 439.733398438 135.291015625 439.733398438 c 0
 97.5986328125 439.733398438 60.830078125 417.98046875 51.94921875 382.911132812 c 0
 49.6044921875 373.653320312 48.5556640625 364.959960938 48.5556640625 356.849609375 c 0
 48.5556640625 302.701171875 96.3671875 267.94140625 140.415039062 267.94140625 c 0
 168.90234375 267.94140625 193.772460938 281.776367188 203.364257812 315.176757812 c 1
 212.662109375 312.506835938 l 1
 203.366210938 315.184570312 l 1
 208.536132812 333.131835938 210.75 348.795898438 210.75 362.215820312 c 0
EndSplineSet
Validated: 524289
EndChar

StartChar: p
Encoding: 112 112 15
Width: 271
Flags: HW
LayerCount: 2
Fore
SplineSet
123.5 242.315429688 m 0
 195.8984375 242.315429688 237.071289062 297.651367188 237.071289062 352.76953125 c 0
 237.071289062 409.225585938 193.9296875 464.575195312 107.969726562 464.575195312 c 0
 84.7041015625 464.575195312 58.513671875 460.637695312 29.185546875 451.946289062 c 1
 36.8583984375 426.053710938 l 1
 64.13671875 434.137695312 87.8173828125 437.575195312 107.969726562 437.575195312 c 0
 180.721679688 437.575195312 210.071289062 394.390625 210.071289062 352.76953125 c 0
 210.071289062 310.708984375 180.078125 269.315429688 123.5 269.315429688 c 0
 102.5703125 269.315429688 77.2939453125 275.043945312 48.01171875 289.40625 c 1
 48.01171875 289.40625 36.12109375 265.163085938 36.1484375 265.150390625 c 0
 68.3505859375 249.35546875 97.5673828125 242.315429688 123.5 242.315429688 c 0
25.2900390625 392.403320312 m 0
 25.2900390625 227.334960938 36.14453125 45.4169921875 24.25 -115.995117188 c 1
 51.17578125 -118.004882812 l 1
 63.1376953125 44.3203125 52.2900390625 226.69140625 52.2900390625 392.403320312 c 0
 52.2900390625 416.467773438 52.56640625 439.428710938 53.2509765625 460.97265625 c 1
 26.2646484375 461.84375 l 1
 25.568359375 439.91796875 25.2900390625 416.678710938 25.2900390625 392.403320312 c 0
EndSplineSet
Validated: 524325
EndChar

StartChar: q
Encoding: 113 113 16
Width: 270
Flags: HW
LayerCount: 2
Fore
SplineSet
167.201171875 135.612304688 m 1
 183.314453125 113.952148438 l 1
 259.806640625 170.973632812 l 1
 243.693359375 192.633789062 l 1
 167.201171875 135.612304688 l 1
134.075195312 270.908203125 m 0
 77.4970703125 270.908203125 47.50390625 312.301757812 47.50390625 354.361328125 c 0
 47.50390625 395.983398438 76.853515625 439.166992188 149.604492188 439.166992188 c 0
 169.7578125 439.166992188 193.438476562 435.729492188 220.715820312 427.645507812 c 1
 228.389648438 453.538085938 l 1
 199.061523438 462.229492188 172.87109375 466.166992188 149.604492188 466.166992188 c 0
 63.6455078125 466.166992188 20.50390625 410.817382812 20.50390625 354.361328125 c 0
 20.50390625 299.244140625 61.6767578125 243.908203125 134.075195312 243.908203125 c 0
 160.0078125 243.908203125 189.224609375 250.948242188 221.454101562 266.755859375 c 1
 209.563476562 290.999023438 l 1
 180.28125 276.63671875 155.004882812 270.908203125 134.075195312 270.908203125 c 0
205.28515625 393.99609375 m 0
 205.28515625 228.32421875 194.439453125 45.8779296875 206.399414062 -116.413085938 c 1
 233.327148438 -114.428710938 l 1
 221.4296875 47.0185546875 232.28515625 228.88671875 232.28515625 393.99609375 c 0
 232.28515625 418.270507812 232.006835938 441.509765625 231.310546875 463.435546875 c 1
 204.32421875 462.578125 l 1
 205.008789062 441.020507812 205.28515625 418.060546875 205.28515625 393.99609375 c 0
EndSplineSet
Validated: 524325
EndChar

StartChar: r
Encoding: 114 114 17
Width: 253
Flags: HW
LayerCount: 2
Fore
SplineSet
33.19921875 244.830078125 m 1
 27.5 278.998046875 32.376953125 318.909179688 32.376953125 355.876953125 c 0
 32.376953125 384.616210938 29.9853515625 412.576171875 20.9970703125 435.819335938 c 1
 46.1845703125 445.559570312 l 1
 57.1513671875 417.19921875 59.376953125 385.96875 59.376953125 355.876953125 c 0
 59.376953125 331.39453125 57.6630859375 306.388671875 57.6630859375 282.791992188 c 0
 57.6630859375 270.236328125 58.23828125 258.841796875 59.830078125 249.297851562 c 2
 33.19921875 244.830078125 l 1
137.440429688 458.952148438 m 0
 184.23828125 458.952148438 215.862304688 429.31640625 222.17578125 392.415039062 c 1
 195.563476562 387.836914062 l 1
 191.448242188 411.888671875 172.12109375 431.952148438 137.440429688 431.952148438 c 0
 113.50390625 431.952148438 81.248046875 421.859375 42.53125 393.918945312 c 1
 26.732421875 415.810546875 l 1
 68.60546875 446.029296875 105.930664062 458.952148438 137.440429688 458.952148438 c 0
EndSplineSet
Validated: 524325
EndChar

StartChar: s
Encoding: 115 115 18
Width: 208
Flags: HW
LayerCount: 2
Fore
SplineSet
182.052734375 311.703125 m 0
 182.052734375 357.077148438 136.377929688 370.165039062 102.8359375 370.165039062 c 0
 85.3017578125 370.165039062 68.9716796875 375.165039062 62.267578125 381.2578125 c 0
 59.10546875 384.131835938 58.0517578125 386.544921875 58.0517578125 389.794921875 c 0
 58.0517578125 393.821289062 60.369140625 401.545898438 69.8662109375 412.541015625 c 0
 85.07421875 430.1484375 103.263671875 436.862304688 117.372070312 436.862304688 c 0
 134.514648438 436.862304688 141.474609375 428.698242188 141.474609375 420.9921875 c 0
 141.474609375 418.729492188 140.974609375 415.807617188 139.504882812 412.247070312 c 1
 164.465820312 401.944335938 l 1
 167.092773438 408.307617188 168.474609375 414.689453125 168.474609375 420.9921875 c 0
 168.474609375 449.111328125 142.499023438 463.862304688 117.372070312 463.862304688 c 0
 94.8876953125 463.862304688 69.4892578125 453.403320312 49.4267578125 430.17578125 c 0
 37.6357421875 416.5234375 31.0517578125 403.23828125 31.0517578125 389.794921875 c 0
 31.0517578125 378.134765625 36.48046875 368.215820312 44.119140625 361.274414062 c 0
 59.48046875 347.313476562 82.13671875 343.170898438 104.391601562 343.170898438 c 0
 132.4140625 343.170898438 152.286132812 332.452148438 154.7578125 315.646484375 c 0
 156.045898438 306.879882812 153.474609375 300.399414062 148.0078125 294.090820312 c 0
 133.002929688 276.775390625 93.1845703125 267.422851562 69.9052734375 283.223632812 c 0
 59.708984375 290.143554688 52.5224609375 302.192382812 53.5986328125 322.7265625 c 1
 26.6357421875 324.16015625 l 1
 24.1640625 276.997070312 55.7158203125 248.038085938 99.943359375 248.038085938 c 0
 125.55078125 248.038085938 152.16796875 257.669921875 168.41796875 276.422851562 c 0
 176.6171875 285.883789062 182.052734375 297.985351562 182.052734375 311.703125 c 0
EndSplineSet
Validated: 524329
EndChar

StartChar: t
Encoding: 116 116 19
Width: 162
Flags: HW
LayerCount: 2
Fore
SplineSet
99.22265625 275.041992188 m 0
 99.1845703125 275.041992188 97.921875 275.041992188 95.5712890625 278.353515625 c 0
 92.2568359375 283.0234375 88.3427734375 292.981445312 85.3984375 306.642578125 c 0
 78.7666015625 337.405273438 76.2734375 385.283203125 76.2734375 437.009765625 c 0
 76.2734375 506.495117188 80.544921875 583.208984375 83.6201171875 638.348632812 c 0
 85.3447265625 669.252929688 86.703125 693.150390625 86.703125 706.227539062 c 0
 86.703125 709.482421875 86.6513671875 712.034179688 86.361328125 714.556640625 c 1
 86.361328125 714.556640625 59.5361328125 711.471679688 59.5390625 711.443359375 c 0
 59.595703125 710.951171875 59.703125 708.939453125 59.703125 706.227539062 c 0
 59.703125 694.83203125 58.3798828125 670.6484375 56.6630859375 639.873046875 c 0
 53.583984375 584.688476562 49.2734375 507.573242188 49.2734375 437.009765625 c 0
 49.2734375 384.365234375 51.546875 335.52734375 59.00390625 300.934570312 c 0
 62.9423828125 282.663085938 67.9755859375 267.346679688 78.283203125 257.108398438 c 0
 83.5810546875 251.846679688 90.9111328125 248.041992188 99.22265625 248.041992188 c 0
 113.330078125 248.041992188 124.90625 257.274414062 136.09375 270.185546875 c 1
 115.692382812 287.864257812 l 1
 105.991210938 276.668945312 99.9423828125 275.041992188 99.22265625 275.041992188 c 0
90.6728515625 509.338867188 m 0
 73.8515625 509.338867188 69.375 517.107421875 51.7529296875 517.107421875 c 0
 42.9267578125 517.107421875 33.119140625 514.844726562 20.21484375 509.6328125 c 1
 30.328125 484.59375 l 1
 41.388671875 489.061523438 47.8056640625 490.107421875 51.7529296875 490.107421875 c 0
 55.64453125 490.107421875 58.1708984375 489.267578125 63.28515625 487.469726562 c 0
 69.2626953125 485.368164062 78.171875 482.338867188 90.6728515625 482.338867188 c 0
 95.712890625 482.338867188 101.306640625 482.782226562 107.663085938 483.78125 c 1
 106.249023438 492.666015625 104.893554688 501.609375 103.442382812 510.45703125 c 1
 98.2724609375 509.64453125 94.09765625 509.338867188 90.6728515625 509.338867188 c 0
EndSplineSet
Validated: 524293
EndChar

StartChar: u
Encoding: 117 117 20
Width: 301
Flags: HW
LayerCount: 2
Fore
SplineSet
258.671875 425.052734375 m 0
 258.671875 367.548828125 248.97265625 294.694335938 271.3515625 251.2109375 c 1
 242.294921875 242.767578125 l 1
 216.682617188 292.536132812 227.5234375 362.325195312 227.5234375 425.052734375 c 0
 227.5234375 439.275390625 226.750976562 451.750976562 224.68359375 461.061523438 c 2
 255.40625 464.93359375 l 1
 257.973632812 453.3671875 258.671875 439.89453125 258.671875 425.052734375 c 0
75.255859375 461.083984375 m 1
 66.5107421875 421.658203125 56.3427734375 377.4453125 56.3427734375 344.2421875 c 0
 56.3427734375 324.55078125 59.8701171875 308.19921875 67.2626953125 297.06640625 c 0
 76.0576171875 283.821289062 89.7255859375 276.096679688 118.2578125 276.096679688 c 0
 146.575195312 276.096679688 189.59375 285.016601562 249.70703125 307.342773438 c 1
 263.509765625 286.359375 l 1
 201.3046875 263.256835938 154.733398438 252.692382812 118.2578125 252.692382812 c 0
 80.083984375 252.692382812 53.3310546875 265.619140625 39.373046875 286.640625 c 0
 28.5625 302.920898438 25.1953125 322.696289062 25.1953125 344.2421875 c 0
 25.1953125 380.836914062 35.666015625 424.979492188 44.52734375 464.931640625 c 1
 75.255859375 461.083984375 l 1
EndSplineSet
Validated: 524325
EndChar

StartChar: v
Encoding: 118 118 21
Width: 196
Flags: HW
LayerCount: 2
Fore
SplineSet
90.283203125 245.228515625 m 0
 100.6953125 245.228515625 107.604492188 252.1796875 112.143554688 258.59375 c 0
 118.16015625 267.094726562 122.89453125 278.580078125 127.661132812 293.965820312 c 0
 138.359375 328.49609375 148.573242188 383.32421875 158.557617188 461.298828125 c 1
 131.7734375 464.728515625 l 1
 122.9921875 396.151367188 113.956054688 345.874023438 105.143554688 313.306640625 c 0
 101.235351562 298.860351562 97.3427734375 287.923828125 93.88671875 280.805664062 c 0
 92.583984375 278.123046875 91.33203125 276.060546875 90.3115234375 274.580078125 c 1
 89.171875 276.266601562 87.744140625 278.686523438 86.2822265625 281.860351562 c 0
 82.7421875 289.5390625 78.8662109375 301.08203125 75.052734375 315.940429688 c 0
 66.45703125 349.434570312 58.037109375 399.678710938 50.283203125 464.614257812 c 1
 50.283203125 464.614257812 23.4716796875 461.413085938 23.474609375 461.385742188 c 0
 32.2919921875 387.544921875 41.8681640625 332.275390625 52.36328125 296.58203125 c 0
 57.0400390625 280.67578125 61.7626953125 268.5546875 67.8046875 259.559570312 c 0
 72.3115234375 252.849609375 79.2958984375 245.228515625 90.283203125 245.228515625 c 0
EndSplineSet
Validated: 524297
EndChar

StartChar: w
Encoding: 119 119 22
Width: 298
Flags: HW
LayerCount: 2
Fore
SplineSet
90.283203125 245.228515625 m 0
 100.6953125 245.228515625 107.604492188 252.1796875 112.143554688 258.59375 c 0
 118.16015625 267.094726562 122.89453125 278.580078125 127.661132812 293.965820312 c 0
 138.359375 328.49609375 148.573242188 383.32421875 158.557617188 461.298828125 c 1
 131.7734375 464.728515625 l 1
 122.9921875 396.151367188 113.956054688 345.874023438 105.143554688 313.306640625 c 0
 101.235351562 298.860351562 97.3427734375 287.923828125 93.88671875 280.805664062 c 0
 92.583984375 278.123046875 91.33203125 276.060546875 90.3115234375 274.580078125 c 1
 89.171875 276.266601562 87.744140625 278.686523438 86.2822265625 281.860351562 c 0
 82.7421875 289.5390625 78.8662109375 301.08203125 75.052734375 315.940429688 c 0
 66.45703125 349.434570312 58.037109375 399.678710938 50.283203125 464.614257812 c 1
 50.283203125 464.614257812 23.4716796875 461.413085938 23.474609375 461.385742188 c 0
 32.2919921875 387.544921875 41.8681640625 332.275390625 52.36328125 296.58203125 c 0
 57.0400390625 280.67578125 61.7626953125 268.5546875 67.8046875 259.559570312 c 0
 72.3115234375 252.849609375 79.2958984375 245.228515625 90.283203125 245.228515625 c 0
198.568359375 245.228515625 m 0
 208.98046875 245.228515625 215.889648438 252.1796875 220.428710938 258.59375 c 0
 226.4453125 267.094726562 231.1796875 278.580078125 235.946289062 293.965820312 c 0
 246.64453125 328.49609375 256.858398438 383.32421875 266.842773438 461.298828125 c 1
 240.05859375 464.728515625 l 1
 231.27734375 396.151367188 222.241210938 345.874023438 213.428710938 313.306640625 c 0
 209.520507812 298.860351562 205.627929688 287.923828125 202.171875 280.805664062 c 0
 200.869140625 278.123046875 199.6171875 276.060546875 198.596679688 274.580078125 c 1
 197.45703125 276.266601562 196.029296875 278.686523438 194.567382812 281.860351562 c 0
 191.02734375 289.5390625 187.151367188 301.08203125 183.337890625 315.940429688 c 0
 174.7421875 349.434570312 166.322265625 399.678710938 158.568359375 464.614257812 c 1
 158.568359375 464.614257812 131.756835938 461.413085938 131.759765625 461.385742188 c 0
 140.577148438 387.544921875 150.153320312 332.275390625 160.6484375 296.58203125 c 0
 165.325195312 280.67578125 170.047851562 268.5546875 176.08984375 259.559570312 c 0
 180.596679688 252.849609375 187.581054688 245.228515625 198.568359375 245.228515625 c 0
EndSplineSet
Validated: 524293
EndChar

StartChar: x
Encoding: 120 120 23
Width: 193
Flags: HW
LayerCount: 2
Fore
SplineSet
92.2421875 336.666015625 m 0
 108.794921875 336.666015625 120.521484375 349.404296875 129.751953125 364.963867188 c 0
 141.826171875 385.317382812 152.733398438 416.28125 163.3984375 459.778320312 c 1
 137.173828125 466.221679688 l 1
 126.834960938 424.055664062 116.110351562 394.887695312 106.513671875 378.7109375 c 0
 98.4072265625 365.046875 92.7724609375 363.666015625 92.2421875 363.666015625 c 0
 91.650390625 363.666015625 85.6962890625 365.421875 77.607421875 379.7890625 c 0
 68.107421875 396.663085938 58.041015625 426.1171875 48.9189453125 466.016601562 c 1
 22.59375 459.998046875 l 1
 32.0244140625 418.750976562 42.2412109375 387.569335938 54.0634765625 366.571289062 c 0
 63.0322265625 350.640625 74.8017578125 336.666015625 92.2421875 336.666015625 c 0
91.7763671875 363.595703125 m 0
 75.9052734375 363.595703125 64.1318359375 352.060546875 54.830078125 337.532226562 c 0
 42.7685546875 318.694335938 31.958984375 290.204101562 21.4033203125 250.313476562 c 1
 47.5068359375 243.397460938 l 1
 57.693359375 281.88671875 68.24609375 308.416015625 77.5859375 323.001953125 c 0
 85.404296875 335.212890625 90.7763671875 336.595703125 91.7763671875 336.595703125 c 0
 92.8486328125 336.595703125 98.505859375 334.880859375 106.307617188 322.04296875 c 0
 115.5546875 306.82421875 125.461914062 280.029296875 134.448242188 243.615234375 c 1
 160.666015625 250.084960938 l 1
 151.331054688 287.915039062 141.208007812 316.600585938 129.3984375 336.03515625 c 0
 120.354492188 350.91796875 108.510742188 363.595703125 91.7763671875 363.595703125 c 0
EndSplineSet
Validated: 524293
EndChar

StartChar: y
Encoding: 121 121 24
Width: 208
Flags: HW
LayerCount: 2
Fore
SplineSet
164.508789062 186.337890625 m 0
 164.508789062 256.090820312 165.358398438 378.537109375 164.5078125 451.580078125 c 1
 137.509765625 451.265625 l 1
 138.350585938 379.020507812 137.508789062 255.517578125 137.508789062 186.337890625 c 0
 137.508789062 115.540039062 135.7109375 50.75 131.138671875 1.091796875 c 0
 128.3203125 -29.52734375 124.372070312 -54.4462890625 119.5390625 -70.7685546875 c 0
 116.374023438 -81.458984375 112.665039062 -87.1201171875 111.1640625 -89.1015625 c 0
 79.9208984375 -69.5576171875 65.4658203125 -8.142578125 65.4658203125 42.31640625 c 0
 65.4658203125 68.1591796875 69.2197265625 91.7958984375 74.9677734375 106.041015625 c 0
 80.0341796875 118.598632812 84.2548828125 119.243164062 84.2548828125 119.243164062 c 1
 84.2548828125 146.243164062 l 1
 70.623046875 146.243164062 61.1337890625 136.823242188 55.2802734375 127.05859375 c 0
 43.4013671875 107.241210938 38.4658203125 76.185546875 38.4658203125 42.31640625 c 0
 38.4658203125 -19.95703125 56.18359375 -86.97265625 97.318359375 -112.284179688 c 0
 101.470703125 -114.83984375 106.346679688 -116.646484375 111.762695312 -116.646484375 c 0
 126.388671875 -116.646484375 134.635742188 -104.782226562 139.490234375 -94.4814453125 c 0
 146.083984375 -80.494140625 150.416015625 -61.2392578125 153.913085938 -36.9931640625 c 0
 161.765625 17.4404296875 164.508789062 97.2080078125 164.508789062 186.337890625 c 0
95.7392578125 245.83203125 m 0
 105.580078125 245.83203125 112.598632812 251.994140625 117.356445312 258.177734375 c 0
 123.546875 266.221679688 128.3671875 277.056640625 133.19140625 291.505859375 c 0
 144.020507812 323.944335938 154.296875 375.484375 164.388671875 449.612304688 c 1
 137.6328125 453.254882812 l 1
 128.768554688 388.143554688 119.674804688 340.9140625 110.852539062 310.595703125 c 0
 106.939453125 297.147460938 103.052734375 287.0625 99.6484375 280.592773438 c 0
 98.1650390625 277.772460938 96.7734375 275.745117188 95.724609375 274.416992188 c 1
 94.681640625 275.729492188 93.3056640625 277.715820312 91.8525390625 280.4375 c 0
 88.5537109375 286.61328125 84.8427734375 296.05078125 81.1611328125 308.216796875 c 0
 70.4755859375 343.5234375 59.8896484375 401.368164062 50.2705078125 477.133789062 c 1
 50.2705078125 477.133789062 23.4833984375 473.733398438 23.4873046875 473.706054688 c 0
 33.2080078125 397.1328125 43.7763671875 338.516601562 55.3134765625 300.39453125 c 0
 60.4541015625 283.408203125 65.6533203125 270.387695312 72.1748046875 260.82421875 c 0
 77.0673828125 253.6484375 84.419921875 245.83203125 95.7392578125 245.83203125 c 0
EndSplineSet
Validated: 524325
EndChar

StartChar: z
Encoding: 122 122 25
Width: 376
Flags: HW
LayerCount: 2
Fore
SplineSet
261.202148438 477.217773438 m 0
 219.1640625 477.217773438 206.704101562 475.185546875 161.4609375 475.185546875 c 0
 141.923828125 475.185546875 116.451171875 475.526367188 80.8193359375 476.495117188 c 1
 80.0859375 449.504882812 l 1
 115.883789062 448.532226562 141.600585938 448.185546875 161.4609375 448.185546875 c 0
 212.884765625 448.185546875 235.78515625 450.875 285.904296875 449.978515625 c 1
 280.477539062 443.594726562 272.083984375 436.204101562 261.576171875 428.517578125 c 0
 209.825195312 390.658203125 112.59765625 347.978515625 59.982421875 309.783203125 c 0
 48.3232421875 301.319335938 38.55078125 292.965820312 31.4912109375 283.880859375 c 0
 25.912109375 276.701171875 21.5439453125 268.49609375 21.3349609375 258.880859375 c 2
 21.0341796875 244.96875 l 1
 126.026367188 245.837890625 250.059570312 248.052734375 349.318359375 247.568359375 c 1
 349.450195312 274.568359375 l 1
 261.262695312 274.999023438 152.666015625 273.18359375 57.189453125 272.282226562 c 1
 61.7890625 276.994140625 68.1337890625 282.340820312 75.8193359375 287.918945312 c 0
 99.5634765625 305.15625 135.401367188 324.604492188 171.984375 344.364257812 c 0
 210.096679688 364.951171875 249.03125 385.890625 277.494140625 406.712890625 c 0
 290.168945312 415.984375 300.889648438 425.2421875 308.690429688 435.208984375 c 0
 314.87890625 443.1171875 319.598632812 451.900390625 320.373046875 461.950195312 c 2
 321.463867188 476.106445312 l 1
 302.006835938 476.639648438 275.500976562 477.217773438 261.202148438 477.217773438 c 0
108.134765625 380.408203125 m 1
 108.633789062 353.412109375 l 1
 276.043945312 356.508789062 l 1
 275.544921875 383.504882812 l 1
 108.134765625 380.408203125 l 1
EndSplineSet
Validated: 524325
EndChar

StartChar: A
Encoding: 65 65 26
Width: 394
Flags: HW
LayerCount: 2
Fore
SplineSet
250.120117188 716.662109375 m 0
 232.010742188 716.662109375 218.921875 704.595703125 207.56640625 690.549804688 c 0
 192.641601562 672.087890625 177.079101562 644.130859375 158.595703125 603.48046875 c 0
 101.37109375 477.623046875 72.2138671875 429.34375 13.66796875 246.01171875 c 1
 51.779296875 233.840820312 l 1
 109.80078125 415.529296875 137.888671875 461.286132812 195.029296875 586.95703125 c 0
 210.83203125 621.713867188 224.30859375 645.966796875 234.892578125 660.4765625 c 0
 241.413085938 669.415039062 246.663085938 673.924804688 249.23828125 675.741210938 c 0
 250.629882812 673.971679688 252.9140625 670.540039062 255.216796875 665.22265625 c 0
 259.327148438 655.735351562 263.484375 641.379882812 267.240234375 623.741210938 c 0
 275.712890625 583.952148438 282.428710938 527.6953125 289.758789062 465.747070312 c 0
 298.290039062 393.649414062 307.72265625 313.685546875 322.584960938 240.844726562 c 1
 322.584960938 240.844726562 361.784179688 248.84375 361.778320312 248.872070312 c 0
 347.388671875 319.393554688 338.006835938 398.430664062 329.48046875 470.489257812 c 0
 321.219726562 540.301757812 313.89453125 603.303710938 302.80078125 647.555664062 c 0
 296.924804688 670.991210938 290.606445312 690.233398438 277.877929688 703.8125 c 0
 271.3515625 710.774414062 261.704101562 716.662109375 250.120117188 716.662109375 c 0
227.595703125 460.87890625 m 0
 270.831054688 460.87890625 314.506835938 452.305664062 356.099609375 429.129882812 c 1
 362.553710938 440.779296875 369.184570312 452.479492188 375.52734375 464.096679688 c 1
 327.04296875 491.112304688 276.215820312 500.87890625 227.595703125 500.87890625 c 0
 146.833007812 500.87890625 71.91796875 474.413085938 18.73046875 454.615234375 c 1
 32.6865234375 417.12109375 l 1
 85.10546875 436.6328125 155.615234375 460.87890625 227.595703125 460.87890625 c 0
EndSplineSet
Validated: 524325
EndChar

StartChar: B
Encoding: 66 66 27
Width: 295
Flags: HW
LayerCount: 2
Fore
SplineSet
125.841796875 239.603515625 m 0
 217.109375 239.603515625 278.606445312 297.590820312 278.606445312 385.532226562 c 0
 278.606445312 473.530273438 211.829101562 571.629882812 95.1748046875 571.629882812 c 0
 76.91015625 571.629882812 57.681640625 569.19921875 37.5849609375 564.061523438 c 1
 47.4951171875 525.30078125 l 1
 64.6318359375 529.681640625 80.529296875 531.629882812 95.1748046875 531.629882812 c 0
 186.034179688 531.629882812 238.606445312 455.626953125 238.606445312 385.532226562 c 0
 238.606445312 360.016601562 231.439453125 336.272460938 217.500976562 318.142578125 c 0
 200.31640625 295.790039062 171.653320312 279.603515625 125.841796875 279.603515625 c 0
 101.293945312 279.603515625 71.6982421875 284.442382812 36.9912109375 295.983398438 c 1
 24.3671875 258.01953125 l 1
 62.3017578125 245.405273438 95.9873046875 239.603515625 125.841796875 239.603515625 c 0
53.96484375 293.954101562 m 0
 53.96484375 385.395507812 60.1513671875 496.994140625 60.1513671875 592.16015625 c 0
 60.1513671875 635.983398438 59.025390625 677.852539062 55.7197265625 714.801757812 c 1
 55.7197265625 714.801757812 15.876953125 711.237304688 15.8798828125 711.198242188 c 0
 19.0185546875 676.1171875 20.1513671875 635.264648438 20.1513671875 592.16015625 c 0
 20.1513671875 497.241210938 13.96484375 385.876953125 13.96484375 293.954101562 c 0
 13.96484375 278.322265625 14.1796875 263.671875 14.6982421875 250.216796875 c 1
 14.6982421875 250.216796875 54.669921875 251.758789062 54.6689453125 251.783203125 c 0
 54.1767578125 264.536132812 53.96484375 278.69921875 53.96484375 293.954101562 c 0
110.737304688 689.060546875 m 0
 158.193359375 689.060546875 180.106445312 659.86328125 180.106445312 632.73046875 c 0
 180.106445312 612.46484375 168.224609375 589.490234375 135.475585938 575.368164062 c 0
 118.961914062 568.24609375 96.91796875 563.510742188 68.7314453125 563.510742188 c 0
 61.0498046875 563.510742188 52.904296875 563.861328125 44.2919921875 564.607421875 c 1
 43.0576171875 551.395507812 41.9775390625 538.029296875 40.8017578125 524.7578125 c 1
 50.5048828125 523.91796875 59.810546875 523.510742188 68.7314453125 523.510742188 c 0
 101.428710938 523.510742188 128.874023438 528.954101562 151.286132812 538.618164062 c 0
 196.389648438 558.069335938 220.106445312 595.102539062 220.106445312 632.73046875 c 0
 220.106445312 683.859375 176.961914062 729.060546875 110.737304688 729.060546875 c 0
 85.6337890625 729.060546875 57.6572265625 722.821289062 27.1669921875 709.034179688 c 1
 43.6513671875 672.583007812 l 1
 69.8857421875 684.446289062 92.4208984375 689.060546875 110.737304688 689.060546875 c 0
EndSplineSet
Validated: 524325
EndChar

StartChar: C
Encoding: 67 67 28
Width: 301
Flags: HW
LayerCount: 2
Fore
SplineSet
275.8125 495.069335938 m 1
 277.083984375 582.727539062 256.475585938 648.823242188 221.169921875 684.553710938 c 0
 203.901367188 702.030273438 182.4609375 712.397460938 159.408203125 712.397460938 c 0
 138.967773438 712.397460938 119.112304688 704.318359375 101.471679688 689.979492188 c 0
 66.3076171875 661.395507812 38.2177734375 608.125 21.6162109375 529.895507812 c 0
 16.404296875 505.336914062 14.0107421875 481.6484375 14.0107421875 459.111328125 c 0
 14.0107421875 377.453125 45.19140625 311.096679688 88.2119140625 274.470703125 c 0
 109.728515625 256.153320312 134.791992188 244.899414062 160.865234375 244.899414062 c 0
 222.1484375 244.899414062 266.940429688 304.609375 275.202148438 412.96875 c 1
 235.31640625 416.009765625 l 1
 227.458007812 312.94140625 189.349609375 284.899414062 160.865234375 284.899414062 c 0
 146.721679688 284.899414062 130.189453125 291.2578125 114.119140625 304.938476562 c 0
 81.9677734375 332.310546875 54.0107421875 387.497070312 54.0107421875 459.111328125 c 0
 54.0107421875 478.76171875 56.09765625 499.665039062 60.7451171875 521.563476562 c 0
 76.3154296875 594.931640625 102.50390625 639.278320312 126.67578125 658.926757812 c 0
 138.704101562 668.704101562 149.780273438 672.397460938 159.408203125 672.397460938 c 0
 170.1484375 672.397460938 181.409179688 667.893554688 192.721679688 656.4453125 c 0
 215.58203125 633.310546875 235.868164062 581.623046875 235.868164062 502.668945312 c 0
 235.868164062 500.35546875 235.850585938 498.01953125 235.81640625 495.661132812 c 1
 275.8125 495.069335938 l 1
EndSplineSet
Validated: 524329
EndChar

StartChar: D
Encoding: 68 68 29
Width: 340
Flags: HW
LayerCount: 2
Fore
SplineSet
95.0361328125 674.579101562 m 0
 122.430664062 674.579101562 150.864257812 662.385742188 176.993164062 640.575195312 c 0
 229.465820312 596.774414062 268.645507812 516.577148438 268.645507812 445.06640625 c 0
 268.645507812 397.954101562 252.490234375 355.989257812 214.538085938 327.287109375 c 0
 183.907226562 304.122070312 136.993164062 288.276367188 68.2802734375 288.276367188 c 0
 59.8369140625 288.276367188 51.0654296875 289.008789062 41.96484375 289.008789062 c 1
 39.7998046875 249.067382812 l 1
 49.5849609375 248.537109375 59.076171875 248.276367188 68.2802734375 248.276367188 c 0
 143.015625 248.276367188 199.09765625 265.465820312 238.6328125 295.365234375 c 0
 288.388671875 332.994140625 308.645507812 388.655273438 308.645507812 445.06640625 c 0
 308.645507812 529.822265625 264.859375 619.325195312 202.6015625 671.294921875 c 0
 171.364257812 697.370117188 134.491210938 714.579101562 95.0361328125 714.579101562 c 0
 69.7939453125 714.579101562 44.240234375 707.353515625 20.041015625 691.971679688 c 1
 41.498046875 658.21484375 l 1
 59.6845703125 669.775390625 77.5205078125 674.579101562 95.0361328125 674.579101562 c 0
21.3779296875 695.0859375 m 1
 22.6015625 598.0390625 19.982421875 494.84765625 17.7255859375 399.405273438 c 0
 16.3525390625 341.346679688 15.09765625 288.364257812 14.8896484375 247.102539062 c 1
 54.8896484375 246.897460938 l 1
 55.09375 287.530273438 56.341796875 340.401367188 57.7138671875 398.443359375 c 0
 59.9697265625 493.854492188 62.60546875 597.9765625 61.3740234375 695.590820312 c 1
 21.3779296875 695.0859375 l 1
EndSplineSet
Validated: 524325
EndChar

StartChar: E
Encoding: 69 69 30
Width: 333
Flags: HW
LayerCount: 2
Fore
SplineSet
100.903320312 239.328125 m 1
 100.903320312 333.267578125 105.627929688 429.8671875 105.627929688 525.211914062 c 0
 105.627929688 588.38671875 103.650390625 652.044921875 97.0625 715.098632812 c 1
 97.0625 715.098632812 57.275390625 710.94140625 57.2802734375 710.901367188 c 0
 73.1083984375 559.405273438 60.9033203125 397.21484375 60.9033203125 239.328125 c 1
 100.903320312 239.328125 l 1
64.2080078125 528.509765625 m 2
 62.609375 488.541992188 l 1
 242.418945312 481.348632812 l 1
 244.017578125 521.31640625 l 1
 244.017578125 521.31640625 64.232421875 528.508789062 64.2080078125 528.509765625 c 2
-54.2705078125 732.981445312 m 2
 -56.013671875 693.01953125 l 1
 351.525390625 675.248046875 l 1
 353.268554688 715.209960938 l 1
 353.268554688 715.209960938 -54.244140625 732.98046875 -54.2705078125 732.981445312 c 2
-28.1748046875 284.750976562 m 1
 -29.978515625 244.791015625 l 1
 363.880859375 227.01953125 l 1
 365.68359375 266.979492188 l 1
 365.68359375 266.979492188 -28.1484375 284.75 -28.1748046875 284.750976562 c 1
EndSplineSet
Validated: 524325
EndChar

StartChar: F
Encoding: 70 70 31
Width: 352
Flags: HW
LayerCount: 2
Fore
SplineSet
141.903320312 239.328125 m 1
 141.903320312 333.267578125 146.627929688 429.8671875 146.627929688 525.211914062 c 0
 146.627929688 588.38671875 144.650390625 652.044921875 138.0625 715.098632812 c 1
 138.0625 715.098632812 98.2763671875 710.94140625 98.2802734375 710.901367188 c 0
 114.109375 559.405273438 101.903320312 397.21484375 101.903320312 239.328125 c 1
 141.903320312 239.328125 l 1
105.208007812 528.509765625 m 2
 103.609375 488.541992188 l 1
 283.418945312 481.348632812 l 1
 285.018554688 521.31640625 l 1
 285.018554688 521.31640625 105.233398438 528.508789062 105.208007812 528.509765625 c 2
-13.2705078125 732.981445312 m 2
 -15.0126953125 693.01953125 l 1
 392.526367188 675.248046875 l 1
 394.268554688 715.209960938 l 1
 394.268554688 715.209960938 -13.244140625 732.98046875 -13.2705078125 732.981445312 c 2
EndSplineSet
Validated: 524325
EndChar

StartChar: G
Encoding: 71 71 32
Width: 322
Flags: HW
LayerCount: 2
Fore
SplineSet
171.715820312 712.494140625 m 0
 151.938476562 712.494140625 132.151367188 705.39453125 114.224609375 691.678710938 c 0
 78.4677734375 664.322265625 49.5947265625 611.872070312 32.1982421875 529.895507812 c 0
 27.580078125 508.1328125 25.4580078125 486.81640625 25.4580078125 466.240234375 c 0
 25.4580078125 382.893554688 59.8798828125 312.111328125 105.01171875 272.6484375 c 0
 127.57421875 252.919921875 153.673828125 240.264648438 180.833007812 240.264648438 c 0
 194.120117188 240.264648438 207.326171875 243.438476562 219.438476562 250.059570312 c 0
 262.237304688 273.456054688 285.655273438 332.807617188 285.655273438 428.0703125 c 0
 285.655273438 439.508789062 285.310546875 451.5234375 284.598632812 464.141601562 c 1
 284.598632812 464.141601562 244.661132812 461.889648438 244.663085938 461.858398438 c 0
 245.334960938 449.946289062 245.655273438 438.6875 245.655273438 428.0703125 c 0
 245.655273438 336.763671875 221.435546875 296.740234375 200.293945312 285.182617188 c 0
 194.138671875 281.818359375 187.745117188 280.264648438 180.833007812 280.264648438 c 0
 166.638671875 280.264648438 148.87109375 287.422851562 131.322265625 302.767578125 c 0
 96.2314453125 333.450195312 65.4580078125 393.842773438 65.4580078125 466.240234375 c 0
 65.4580078125 484.014648438 67.2900390625 502.5390625 71.3271484375 521.563476562 c 0
 87.70703125 598.747070312 114.430664062 641.479492188 138.498046875 659.892578125 c 0
 150.483398438 669.061523438 161.666015625 672.494140625 171.715820312 672.494140625 c 0
 182.216796875 672.494140625 192.80078125 668.696289062 202.842773438 660.674804688 c 0
 222.98046875 644.587890625 240.223632812 610.7890625 241.271484375 565.010742188 c 1
 281.26171875 565.926757812 l 1
 280.009765625 620.634765625 259.94140625 666.25 227.779296875 691.942382812 c 0
 211.670898438 704.810546875 192.357421875 712.494140625 171.715820312 712.494140625 c 0
284.630859375 453 m 1
 284.630859375 493 l 1
 142.595703125 493 l 1
 146.904296875 469.704101562 151.212890625 446.407226562 155.521484375 423.111328125 c 1
 155.521484375 423.111328125 194.860351562 430.38671875 194.853515625 430.419921875 c 2
 190.677734375 453 l 1
 284.630859375 453 l 1
EndSplineSet
Validated: 524325
EndChar

StartChar: H
Encoding: 72 72 33
Width: 307
Flags: HW
LayerCount: 2
Fore
SplineSet
52.8447265625 485 m 1
 52.8447265625 445 l 1
 240.377929688 445 l 1
 240.377929688 485 l 1
 52.8447265625 485 l 1
58.294921875 332.705078125 m 0
 58.294921875 461.581054688 66.1943359375 600.271484375 47.50390625 716.202148438 c 1
 47.50390625 716.202148438 8.0087890625 709.834960938 8.015625 709.797851562 c 0
 25.96484375 598.459960938 18.294921875 458.145507812 18.294921875 332.705078125 c 0
 18.294921875 301.298828125 18.8564453125 271.923828125 20.685546875 245.595703125 c 1
 20.685546875 245.595703125 60.5908203125 248.369140625 60.587890625 248.404296875 c 0
 58.86328125 273.233398438 58.294921875 301.798828125 58.294921875 332.705078125 c 0
259.297851562 716.202148438 m 1
 259.297851562 716.202148438 219.802734375 709.834960938 219.809570312 709.797851562 c 0
 234.149414062 620.844726562 234.635742188 509.225585938 234.958007812 408.172851562 c 0
 235.1484375 348.229492188 235.301757812 291.987304688 238.525390625 245.595703125 c 1
 238.525390625 245.595703125 278.430664062 248.369140625 278.427734375 248.404296875 c 0
 275.3515625 292.673828125 275.1484375 348.396484375 274.95703125 408.302734375 c 0
 274.635742188 509.45703125 274.40625 622.491210938 259.297851562 716.202148438 c 1
EndSplineSet
Validated: 524325
EndChar

StartChar: I
Encoding: 73 73 34
Width: 140
Flags: HW
LayerCount: 2
Fore
SplineSet
53.1171875 512.731445312 m 0
 53.1171875 403.88671875 51.3896484375 324.685546875 49.52734375 247.490234375 c 1
 89.515625 246.509765625 l 1
 91.37890625 323.764648438 93.1171875 403.458984375 93.1171875 512.731445312 c 0
 93.1171875 570.412109375 92.6328125 636.336914062 91.4306640625 714.525390625 c 1
 51.4345703125 713.91015625 l 1
 52.634765625 635.893554688 53.1171875 570.18359375 53.1171875 512.731445312 c 0
27.8037109375 726.5 m 1
 27.8037109375 699.5 l 1
 118.493164062 699.5 l 1
 118.493164062 726.5 l 1
 27.8037109375 726.5 l 1
2.1328125 260.5 m 1
 2.1328125 233.5 l 1
 138.771484375 233.5 l 1
 138.771484375 260.5 l 1
 2.1328125 260.5 l 1
EndSplineSet
EndChar

StartChar: J
Encoding: 74 74 35
Width: 240
Flags: HW
LayerCount: 2
Fore
SplineSet
213.215820312 401.673828125 m 0
 213.215820312 465.467773438 204.711914062 540.536132812 204.711914062 603.547851562 c 0
 204.711914062 641.630859375 208.342773438 674.04296875 216.868164062 693.958984375 c 2
 228.772460938 721.767578125 l 1
 21.0537109375 722.098632812 l 1
 20.990234375 682.098632812 l 1
 171.333984375 681.858398438 l 1
 166.1328125 658.40234375 164.711914062 631.806640625 164.711914062 603.547851562 c 0
 164.711914062 539.794921875 173.215820312 464.7265625 173.215820312 401.673828125 c 0
 173.215820312 369.033203125 170.698242188 340.323242188 164.443359375 320.010742188 c 0
 159.384765625 303.581054688 152.483398438 293.936523438 144.673828125 288.952148438 c 0
 136.421875 283.685546875 123.055664062 282.543945312 109.639648438 285.030273438 c 0
 98.1787109375 287.154296875 90.0576171875 291.505859375 84.6123046875 296.686523438 c 0
 70.361328125 310.244140625 71.8662109375 331.727539062 81.439453125 352.138671875 c 1
 81.439453125 352.138671875 45.220703125 369.125976562 45.203125 369.087890625 c 0
 37.91015625 353.538085938 34.095703125 338.001953125 34.095703125 322.9296875 c 0
 34.095703125 274.5234375 73.14453125 243.61328125 123.791992188 243.61328125 c 0
 139.6015625 243.61328125 154.046875 247.483398438 166.151367188 255.209960938 c 0
 185.09375 267.298828125 196.099609375 286.866210938 202.680664062 308.239257812 c 0
 210.975585938 335.180664062 213.215820312 367.146484375 213.215820312 401.673828125 c 0
EndSplineSet
EndChar

StartChar: K
Encoding: 75 75 36
Width: 247
Flags: HW
LayerCount: 2
Fore
SplineSet
56.1923828125 247.140625 m 1
 55.181640625 388.186523438 53.03515625 587.592773438 63.92578125 711.264648438 c 1
 24.078125 714.774414062 l 1
 12.9130859375 587.994140625 15.1689453125 389.826171875 16.193359375 246.854492188 c 1
 56.1923828125 247.140625 l 1
74.9951171875 455.458984375 m 1
 129.383789062 538.622070312 177.461914062 621.426757812 229.659179688 702.162109375 c 1
 229.659179688 702.162109375 196.0703125 723.87890625 196.043945312 723.837890625 c 0
 140.83984375 638.453125 90.810546875 551.817382812 33.107421875 464.557617188 c 2
 24.15234375 451.014648438 l 1
 35.6015625 439.467773438 l 1
 35.6015625 439.467773438 68.259765625 407.017578125 195.443359375 235.090820312 c 1
 227.59765625 258.876953125 l 1
 137.221679688 381.045898438 93.2900390625 434.380859375 74.9951171875 455.458984375 c 1
EndSplineSet
EndChar

StartChar: L
Encoding: 76 76 37
Width: 334
Flags: HW
LayerCount: 2
Fore
SplineSet
69.310546875 235.069335938 m 1
 69.310546875 329.853515625 74.0771484375 427.319335938 74.0771484375 523.517578125 c 0
 74.0771484375 587.259765625 72.0810546875 651.485351562 65.4345703125 715.098632812 c 1
 65.4345703125 715.098632812 25.6484375 710.94140625 25.6533203125 710.901367188 c 0
 32.095703125 649.23828125 34.0771484375 586.40625 34.0771484375 523.517578125 c 0
 34.0771484375 427.575195312 29.310546875 330.185546875 29.310546875 235.069335938 c 1
 69.310546875 235.069335938 l 1
28.8388671875 274.092773438 m 1
 27.8173828125 234.106445312 l 1
 304.171875 227.163085938 l 1
 305.193359375 267.149414062 l 1
 28.8388671875 274.092773438 l 1
EndSplineSet
EndChar

StartChar: M
Encoding: 77 77 38
Width: 1000
Flags: H
LayerCount: 2
Fore
SplineSet
256.778320312 688.815429688 m 0
 327.03515625 688.815429688 384.563476562 649.352539062 416.520507812 571.5390625 c 0
 432.576171875 532.4453125 441.904296875 483.477539062 441.904296875 425.524414062 c 0
 441.904296875 374.411132812 434.658203125 316.259765625 418.592773438 251.848632812 c 1
 457.407226562 242.151367188 l 1
 474.149414062 309.276367188 481.904296875 370.57421875 481.904296875 425.524414062 c 0
 481.904296875 487.802734375 471.956054688 541.865234375 453.5390625 586.709960938 c 0
 416.551757812 676.771484375 344.357421875 728.815429688 256.778320312 728.815429688 c 0
 193.831054688 728.815429688 125.19921875 702.528320312 56.830078125 649.5078125 c 1
 81.33984375 617.903320312 l 1
 144.598632812 666.9609375 205.241210938 688.815429688 256.778320312 688.815429688 c 0
74.357421875 343.0859375 m 0
 74.357421875 399.799804688 77.8662109375 459.913085938 77.8662109375 518.427734375 c 0
 77.8662109375 589.779296875 73.267578125 662.68359375 51.8017578125 727.859375 c 1
 13.7998046875 715.3515625 l 1
 33.0380859375 656.9375 37.8662109375 588.034179688 37.8662109375 518.427734375 c 0
 37.8662109375 460.239257812 34.357421875 400.188476562 34.357421875 343.0859375 c 0
 34.357421875 311.557617188 35.5029296875 281.811523438 39.349609375 254.71484375 c 1
 39.349609375 254.71484375 78.95703125 260.336914062 78.951171875 260.376953125 c 0
 75.5234375 284.522460938 74.357421875 312.57421875 74.357421875 343.0859375 c 0
611.981445312 681.740234375 m 0
 670.674804688 681.740234375 719.6640625 654.790039062 752.926757812 602.112304688 c 0
 779.700195312 559.711914062 796.265625 499.655273438 796.265625 423.258789062 c 0
 796.265625 372.955078125 789.098632812 315.588867188 773.201171875 251.848632812 c 1
 812.015625 242.151367188 l 1
 828.5859375 308.58984375 836.265625 369.099609375 836.265625 423.258789062 c 0
 836.265625 505.365234375 818.653320312 572.938476562 786.7734375 623.426757812 c 0
 746.71875 686.860351562 684.147460938 721.740234375 611.981445312 721.740234375 c 0
 547.813476562 721.740234375 477.686523438 694.856445312 408.044921875 640.848632812 c 1
 432.52734375 609.223632812 l 1
 497.078125 659.283203125 559.25 681.740234375 611.981445312 681.740234375 c 0
EndSplineSet
EndChar

StartChar: N
Encoding: 78 78 39
Width: 475
Flags: HW
LayerCount: 2
Fore
SplineSet
395.327148438 231.53125 m 0
 408.189453125 220.979492188 427.553710938 230.419921875 427.9921875 246.443359375 c 0
 430.98046875 355.501953125 431.822265625 458.158203125 431.822265625 539.299804688 c 0
 431.822265625 644.329101562 430.411132812 713.310546875 430.409179688 713.416015625 c 1
 390.416992188 712.583984375 l 1
 390.416992188 712.583984375 391.822265625 644.044921875 391.822265625 539.299804688 c 0
 391.822265625 468.982421875 391.186523438 382.44140625 389.065429688 289.666992188 c 1
 289.930664062 379.174804688 233.73828125 471.78515625 176.079101562 566.88671875 c 0
 144.349609375 619.219726562 112.245117188 672.224609375 72.4072265625 725.028320312 c 0
 68.7548828125 729.869140625 62.9560546875 733 56.431640625 733 c 0
 45.6904296875 733 36.916015625 724.514648438 36.451171875 713.88671875 c 0
 32.228515625 617.305664062 30.7646484375 535.856445312 30.7646484375 469.342773438 c 0
 30.7646484375 319.686523438 38.1748046875 245.650390625 38.2431640625 244.978515625 c 1
 38.2431640625 244.978515625 78.044921875 248.98046875 78.0400390625 249.021484375 c 2
 78.0400390625 249.021484375 70.7646484375 320.528320312 70.7646484375 469.342773438 c 0
 70.7646484375 521.444335938 71.6708984375 582.881835938 74.1240234375 653.752929688 c 1
 98.12890625 618.276367188 119.899414062 582.39453125 141.849609375 546.19140625 c 0
 205.266601562 441.59375 270.465820312 333.97265625 395.327148438 231.53125 c 0
EndSplineSet
EndChar

StartChar: O
Encoding: 79 79 40
Width: 487
Flags: HW
LayerCount: 2
Fore
SplineSet
22.60546875 483.372070312 m 0
 22.60546875 504.5703125 25.3515625 526.734375 31.169921875 549.708007812 c 0
 56.693359375 650.494140625 157.5 704.844726562 252.125976562 704.844726562 c 0
 297.8046875 704.844726562 343.391601562 692.380859375 380.467773438 664.985351562 c 0
 427.153320312 630.48828125 458.077148438 573.16796875 458.077148438 494.590820312 c 0
 458.077148438 461.163085938 452.608398438 424.040039062 440.76953125 382.938476562 c 0
 414.387695312 291.08984375 339.829101562 249.310546875 262.836914062 249.310546875 c 0
 148.754882812 249.310546875 22.60546875 338.78515625 22.60546875 483.372070312 c 0
418.077148438 494.590820312 m 0
 418.077148438 562.430664062 392.611328125 606.282226562 356.731445312 632.794921875 c 0
 327.754882812 654.206054688 290.537109375 664.844726562 252.125976562 664.844726562 c 0
 170.638671875 664.844726562 89.69921875 617.859375 69.94921875 539.872070312 c 0
 64.8916015625 519.90234375 62.60546875 501.048828125 62.60546875 483.372070312 c 0
 62.60546875 364.834960938 167.012695312 289.310546875 262.836914062 289.310546875 c 0
 325.358398438 289.310546875 381.19140625 320.421875 402.319335938 393.994140625 c 1
 416.106445312 390.03515625 l 1
 402.323242188 394.005859375 l 1
 413.3046875 432.131835938 418.077148438 465.62109375 418.077148438 494.590820312 c 0
EndSplineSet
EndChar

StartChar: P
Encoding: 80 80 41
Width: 310
Flags: HW
LayerCount: 2
Fore
SplineSet
148.868164062 453.180664062 m 0
 237.896484375 453.180664062 288.834960938 521.489257812 288.834960938 589.41015625 c 0
 288.834960938 627.515625 273.080078125 666.28515625 239.693359375 693.075195312 c 0
 213.04296875 714.459960938 176.249023438 727.259765625 130.250976562 727.259765625 c 0
 101.919921875 727.259765625 70.16796875 722.46875 34.71875 711.962890625 c 1
 46.0859375 673.604492188 l 1
 78.4970703125 683.209960938 106.532226562 687.259765625 130.250976562 687.259765625 c 0
 168.814453125 687.259765625 196.165039062 676.725585938 214.6875 661.86328125 c 0
 237.767578125 643.34375 248.834960938 616.625 248.834960938 589.41015625 c 0
 248.834960938 540.833984375 214.458984375 493.180664062 148.868164062 493.180664062 c 0
 124.485351562 493.180664062 94.7412109375 499.864257812 60.0498046875 516.87890625 c 1
 60.0498046875 516.87890625 42.43359375 480.962890625 42.4736328125 480.943359375 c 0
 81.490234375 461.806640625 117.073242188 453.180664062 148.868164062 453.180664062 c 0
25.78515625 657.412109375 m 0
 25.78515625 524.59375 34.533203125 378.241210938 24.9697265625 248.452148438 c 1
 64.86328125 245.51171875 l 1
 74.5224609375 376.59765625 65.78515625 523.693359375 65.78515625 657.412109375 c 0
 65.78515625 676.734375 66.5546875 695.140625 66.5546875 712.375 c 1
 26.57421875 713.645507812 l 1
 26.009765625 695.853515625 25.78515625 677.0390625 25.78515625 657.412109375 c 0
EndSplineSet
EndChar

StartChar: Q
Encoding: 81 81 42
Width: 487
Flags: HW
LayerCount: 2
Fore
SplineSet
28.42578125 483.372070312 m 0
 28.42578125 504.5703125 31.171875 526.734375 36.990234375 549.708007812 c 0
 62.5146484375 650.494140625 163.321289062 704.844726562 257.946289062 704.844726562 c 0
 303.625 704.844726562 349.212890625 692.380859375 386.288085938 664.985351562 c 0
 432.973632812 630.48828125 463.897460938 573.16796875 463.897460938 494.590820312 c 0
 463.897460938 461.1640625 458.428710938 424.040039062 446.58984375 382.938476562 c 0
 420.208007812 291.08984375 345.649414062 249.310546875 268.657226562 249.310546875 c 0
 154.575195312 249.310546875 28.42578125 338.78515625 28.42578125 483.372070312 c 0
423.897460938 494.590820312 m 0
 423.897460938 562.430664062 398.431640625 606.282226562 362.551757812 632.794921875 c 0
 333.575195312 654.206054688 296.357421875 664.844726562 257.946289062 664.844726562 c 0
 176.458984375 664.844726562 95.5205078125 617.859375 75.76953125 539.872070312 c 0
 70.7119140625 519.90234375 68.42578125 501.048828125 68.42578125 483.372070312 c 0
 68.42578125 364.834960938 172.833007812 289.310546875 268.657226562 289.310546875 c 0
 331.178710938 289.310546875 387.01171875 320.421875 408.139648438 393.994140625 c 1
 421.926757812 390.03515625 l 1
 408.143554688 394.005859375 l 1
 419.125976562 432.131835938 423.897460938 465.62109375 423.897460938 494.590820312 c 0
387.513671875 225.609375 m 0
 413.521484375 225.609375 435.541015625 236.477539062 451.809570312 247.400390625 c 0
 472.291992188 261.151367188 484.813476562 275.98828125 485.528320312 276.83203125 c 1
 455.016601562 302.688476562 l 1
 455.016601562 302.688476562 445.810546875 291.547851562 429.553710938 280.6328125 c 0
 416.961914062 272.1796875 401.8125 265.609375 387.513671875 265.609375 c 0
 368.27734375 265.609375 342.014648438 276.123046875 315.7265625 333.229492188 c 0
 309.853515625 345.989257812 297.252929688 356.673828125 279.400390625 356.673828125 c 0
 268.876953125 356.673828125 259.634765625 353.532226562 250.985351562 349.600585938 c 0
 240.119140625 344.659179688 229.829101562 337.982421875 220.447265625 331.124023438 c 0
 199.404296875 315.741210938 182.916992188 299.161132812 182.505859375 298.749023438 c 2
 210.806640625 270.4921875 l 1
 210.806640625 270.4921875 225.641601562 285.377929688 244.017578125 298.811523438 c 0
 252 304.647460938 260.454101562 309.958984375 267.509765625 313.166992188 c 0
 272.194335938 315.296875 278.9921875 317.360351562 279.37109375 316.538085938 c 0
 309.069335938 252.022460938 348.098632812 225.609375 387.513671875 225.609375 c 0
EndSplineSet
EndChar

StartChar: R
Encoding: 82 82 43
Width: 316
Flags: HW
LayerCount: 2
Fore
SplineSet
147.262695312 453.180664062 m 0
 236.291015625 453.180664062 287.229492188 521.489257812 287.229492188 589.41015625 c 0
 287.229492188 627.515625 271.474609375 666.28515625 238.087890625 693.075195312 c 0
 211.4375 714.459960938 174.643554688 727.259765625 128.645507812 727.259765625 c 0
 100.314453125 727.259765625 68.5625 722.46875 33.11328125 711.962890625 c 1
 44.48046875 673.604492188 l 1
 76.8916015625 683.209960938 104.926757812 687.259765625 128.645507812 687.259765625 c 0
 167.208984375 687.259765625 194.560546875 676.725585938 213.083007812 661.86328125 c 0
 236.162109375 643.34375 247.229492188 616.625 247.229492188 589.41015625 c 0
 247.229492188 540.833984375 212.853515625 493.180664062 147.262695312 493.180664062 c 0
 122.879882812 493.180664062 93.1357421875 499.864257812 58.4443359375 516.87890625 c 1
 58.4443359375 516.87890625 40.828125 480.962890625 40.8681640625 480.943359375 c 0
 79.8857421875 461.806640625 115.467773438 453.180664062 147.262695312 453.180664062 c 0
24.1806640625 657.403320312 m 0
 24.1806640625 524.586914062 32.9287109375 378.23828125 23.3642578125 248.452148438 c 1
 63.2578125 245.51171875 l 1
 72.91796875 376.594726562 64.1806640625 523.686523438 64.1806640625 657.403320312 c 0
 64.1806640625 676.728515625 64.9501953125 695.137695312 64.9501953125 712.375 c 1
 24.9697265625 713.645507812 l 1
 24.4052734375 695.850585938 24.1806640625 677.033203125 24.1806640625 657.403320312 c 0
230.30859375 256.502929688 m 0
 248.604492188 244.619140625 265.721679688 245.084960938 287.879882812 248.635742188 c 1
 285.747070312 261.786132812 283.698242188 275.051757812 281.512695312 288.129882812 c 1
 268.263671875 286.0078125 261.372070312 284.020507812 252.055664062 290.072265625 c 0
 245.719726562 294.186523438 235.875976562 304.16015625 222.376953125 324.76953125 c 0
 203.01171875 354.334960938 176.51171875 404.412109375 137.583984375 485.018554688 c 1
 101.560546875 467.622070312 l 1
 140.759765625 386.453125 167.483398438 335.578125 188.890625 302.89453125 c 0
 203.706054688 280.275390625 216.172851562 265.68359375 230.30859375 256.502929688 c 0
EndSplineSet
EndChar

StartChar: S
Encoding: 83 83 44
Width: 388
Flags: HW
LayerCount: 2
Fore
SplineSet
354.365234375 395.938476562 m 0
 342.791015625 474.665039062 260.146484375 499.290039062 190.313476562 499.290039062 c 0
 150.19921875 499.290039062 111.849609375 510.182617188 94.0498046875 526.360351562 c 0
 85.4296875 534.193359375 81.5078125 542.260742188 81.5078125 552.504882812 c 0
 81.5078125 564.834960938 88.1845703125 583.930664062 110.008789062 609.19921875 c 0
 145.38671875 650.157226562 188.209960938 666.359375 222.440429688 666.359375 c 0
 263.234375 666.359375 285.543945312 645.91796875 285.543945312 621.451171875 c 0
 285.543945312 614.978515625 284.116210938 607.26171875 280.450195312 598.37890625 c 1
 280.450195312 598.37890625 317.430664062 583.116210938 317.442382812 583.14453125 c 0
 322.810546875 596.150390625 325.543945312 608.993164062 325.543945312 621.451171875 c 0
 325.543945312 676.158203125 275.0625 706.359375 222.440429688 706.359375 c 0
 175.801757812 706.359375 122.298828125 684.610351562 79.7294921875 635.32421875 c 0
 54.5048828125 606.12109375 41.5078125 578.78515625 41.5078125 552.504882812 c 0
 41.5078125 529.80078125 51.912109375 510.614257812 67.162109375 496.754882812 c 0
 98.09765625 468.638671875 146.018554688 459.301757812 193.75 459.301757812 c 0
 256.845703125 459.301757812 308.169921875 435.120117188 314.79296875 390.079101562 c 0
 318.123046875 367.426757812 311.173828125 350.25 297.581054688 334.564453125 c 0
 260.758789062 292.073242188 167.788085938 270.9921875 112.026367188 308.838867188 c 0
 86.5478515625 326.131835938 69.1318359375 356.18359375 71.681640625 404.8359375 c 1
 31.7353515625 406.9296875 l 1
 26.546875 307.926757812 91.6728515625 249.05859375 183.922851562 249.05859375 c 0
 238.137695312 249.05859375 294.359375 269.779296875 327.818359375 308.389648438 c 0
 347.553710938 331.163085938 359.654296875 359.971679688 354.365234375 395.938476562 c 0
EndSplineSet
EndChar

StartChar: T
Encoding: 84 84 45
Width: 397
Flags: HW
LayerCount: 2
Fore
SplineSet
213.858398438 239.231445312 m 0
 182.234375 388.390625 225.245117188 555.025390625 210.44140625 714.864257812 c 1
 210.44140625 714.864257812 170.609375 711.174804688 170.61328125 711.135742188 c 0
 181.13671875 597.50390625 161.955078125 482.938476562 161.955078125 368.876953125 c 0
 161.955078125 322.624023438 165.0703125 276.454101562 174.727539062 230.907226562 c 1
 174.727539062 230.907226562 213.864257812 239.205078125 213.858398438 239.231445312 c 0
20 693 m 1
 93.8251953125 693 119.333007812 703.479492188 194.977539062 703.479492188 c 0
 233.372070312 703.479492188 285.21484375 700.916992188 362.685546875 693.09765625 c 1
 366.702148438 732.8984375 l 1
 288.381835938 740.802734375 235.209960938 743.479492188 194.977539062 743.479492188 c 0
 153.67578125 743.479492188 126.017578125 740.604492188 100.28515625 737.916015625 c 0
 75.8857421875 735.3671875 53.3017578125 733 20 733 c 1
 20 693 l 1
EndSplineSet
EndChar

StartChar: U
Encoding: 85 85 46
Width: 439
Flags: HW
LayerCount: 2
Fore
SplineSet
387.681640625 471.46484375 m 0
 387.681640625 533.331054688 391.668945312 611.778320312 401.498046875 711.008789062 c 1
 388.302734375 712.409179688 374.94921875 713.651367188 361.693359375 714.991210938 c 1
 351.765625 614.755859375 347.681640625 535.07421875 347.681640625 471.46484375 c 0
 347.681640625 329.829101562 367.053710938 266.627929688 392.30859375 234.604492188 c 1
 423.711914062 259.370117188 l 1
 408.654296875 278.463867188 387.681640625 332.565429688 387.681640625 471.46484375 c 0
30.669921875 711.756835938 m 1
 32.09375 639.56640625 23.5478515625 567.779296875 23.5478515625 497.002929688 c 0
 23.5478515625 418.102539062 34.9677734375 342.244140625 91.3369140625 283.342773438 c 0
 127.069335938 246.005859375 179.962890625 230.803710938 227.272460938 230.803710938 c 0
 254.75 230.803710938 280.990234375 235.868164062 302.563476562 246.5546875 c 0
 325.5390625 257.936523438 349.727539062 275.150390625 367.620117188 298.068359375 c 0
 381.905273438 316.365234375 392.360351562 338.85546875 392.564453125 364.510742188 c 1
 352.56640625 364.834960938 l 1
 352.44921875 350.23828125 346.494140625 335.999023438 336.075195312 322.653320312 c 0
 323.087890625 306.01953125 303.439453125 291.631835938 284.846679688 282.421875 c 0
 270.424804688 275.27734375 249.662109375 270.803710938 227.272460938 270.803710938 c 0
 188.029296875 270.803710938 145.7421875 284.3359375 120.235351562 310.989257812 c 0
 74.7861328125 358.479492188 63.5478515625 421.17578125 63.5478515625 497.002929688 c 0
 63.5478515625 567.196289062 72.099609375 639.649414062 70.662109375 712.545898438 c 1
 30.669921875 711.756835938 l 1
EndSplineSet
EndChar

StartChar: V
Encoding: 86 86 47
Width: 325
Flags: HW
LayerCount: 2
Fore
SplineSet
159.9921875 245.510742188 m 0
 178.102539062 245.510742188 190.922851562 257.685546875 200.162109375 270.740234375 c 0
 212.229492188 287.791015625 222.368164062 312.01171875 232.5546875 344.888671875 c 0
 255.431640625 418.727539062 277.5625 537.229492188 299.154296875 705.840820312 c 1
 258.580078125 711.037109375 l 1
 239.530273438 562.26953125 219.940429688 453.115234375 200.666992188 381.881835938 c 0
 192.111328125 350.263671875 183.577148438 326.155273438 175.708007812 309.94921875 c 0
 169.374023438 296.903320312 163.395507812 289.534179688 160.47265625 287.217773438 c 1
 160.225585938 286.802734375 l 1
 158.641601562 288.029296875 154.653320312 291.625976562 149.877929688 299.73046875 c 0
 142.408203125 312.41015625 133.895507812 333.553710938 125.538085938 361.977539062 c 0
 104.333007812 434.094726562 83.544921875 552.399414062 64.623046875 710.864257812 c 1
 64.623046875 710.864257812 24.0068359375 706.013671875 24.01171875 705.971679688 c 0
 43.078125 546.293945312 63.828125 426.827148438 86.2900390625 350.434570312 c 0
 96.2919921875 316.416992188 106.427734375 290.784179688 118.604492188 272.655273438 c 0
 127.8515625 258.88671875 140.879882812 245.510742188 159.9921875 245.510742188 c 0
EndSplineSet
EndChar

StartChar: W
Encoding: 87 87 48
Width: 559
Flags: HW
LayerCount: 2
Fore
SplineSet
155.643554688 238.728515625 m 0
 173.733398438 238.728515625 186.65234375 250.901367188 196.071289062 264.208984375 c 0
 208.3515625 281.561523438 218.748046875 306.353515625 229.190429688 340.057617188 c 0
 252.645507812 415.760742188 275.368164062 537.397460938 297.532226562 710.479492188 c 1
 257.852539062 715.560546875 l 1
 238.290039062 562.795898438 218.17578125 450.697265625 198.366210938 377.483398438 c 0
 189.572265625 344.983398438 180.797851562 320.18359375 172.67578125 303.456054688 c 0
 165.581054688 288.844726562 159.856445312 282.67578125 155.849609375 278.921875 c 1
 154.434570312 279.887695312 149.861328125 283.62109375 144.399414062 292.893554688 c 0
 136.659179688 306.03125 127.905273438 327.799804688 119.311523438 357.026367188 c 0
 97.509765625 431.173828125 76.16796875 552.666992188 56.7373046875 715.391601562 c 1
 56.7373046875 715.391601562 17.015625 710.649414062 17.0205078125 710.608398438 c 0
 36.5927734375 546.6953125 57.8984375 424.06640625 80.9296875 345.73828125 c 0
 91.1845703125 310.862304688 101.579101562 284.615234375 113.977539062 266.155273438 c 0
 123.4140625 252.106445312 136.551757812 238.728515625 155.643554688 238.728515625 c 0
396.454101562 238.728515625 m 0
 414.543945312 238.728515625 427.462890625 250.901367188 436.881835938 264.208984375 c 0
 449.162109375 281.561523438 459.55859375 306.353515625 470.000976562 340.057617188 c 0
 493.456054688 415.760742188 516.178710938 537.397460938 538.342773438 710.479492188 c 1
 498.663085938 715.560546875 l 1
 479.100585938 562.795898438 458.986328125 450.697265625 439.176757812 377.483398438 c 0
 430.3828125 344.983398438 421.608398438 320.18359375 413.486328125 303.456054688 c 0
 406.391601562 288.844726562 400.666992188 282.67578125 396.66015625 278.921875 c 1
 395.245117188 279.887695312 390.671875 283.62109375 385.209960938 292.893554688 c 0
 377.469726562 306.03125 368.715820312 327.799804688 360.122070312 357.026367188 c 0
 338.3203125 431.173828125 316.978515625 552.666992188 297.547851562 715.391601562 c 1
 297.547851562 715.391601562 257.826171875 710.649414062 257.831054688 710.608398438 c 0
 277.403320312 546.6953125 298.708984375 424.06640625 321.740234375 345.73828125 c 0
 331.995117188 310.862304688 342.389648438 284.615234375 354.788085938 266.155273438 c 0
 364.224609375 252.106445312 377.362304688 238.728515625 396.454101562 238.728515625 c 0
EndSplineSet
EndChar

StartChar: X
Encoding: 88 88 49
Width: 319
Flags: HW
LayerCount: 2
Fore
SplineSet
160.201171875 449.659179688 m 0
 190.490234375 449.659179688 213.724609375 473.295898438 233.251953125 506.212890625 c 0
 258.455078125 548.697265625 281.916992188 614.869140625 304.8125 708.245117188 c 1
 265.956054688 717.772460938 l 1
 243.548828125 626.38671875 220.357421875 562.875 198.82421875 526.578125 c 0
 180.962890625 496.469726562 166.754882812 489.659179688 160.201171875 489.659179688 c 0
 153.236328125 489.659179688 138.43359375 497.569335938 120.692382812 529.08203125 c 0
 99.4208984375 566.866210938 77.6611328125 630.971679688 57.884765625 717.469726562 c 1
 57.884765625 717.469726562 18.8837890625 708.552734375 18.888671875 708.530273438 c 0
 39.1171875 620.057617188 61.1005859375 553.393554688 85.8115234375 509.500976562 c 0
 104.857421875 475.670898438 128.276367188 449.659179688 160.201171875 449.659179688 c 0
159.196289062 489.506835938 m 0
 129.989257812 489.506835938 106.759765625 468.056640625 87.2001953125 437.5078125 c 0
 62.1064453125 398.31640625 38.880859375 337.53515625 16.2392578125 251.978515625 c 1
 54.9130859375 241.732421875 l 1
 77.0048828125 325.212890625 99.8505859375 383.088867188 120.911132812 415.98046875 c 0
 138.274414062 443.09765625 152.020507812 449.506835938 159.196289062 449.506835938 c 0
 166.796875 449.506835938 181.086914062 442.108398438 198.330078125 413.73046875 c 0
 219.137695312 379.487304688 240.577148438 321.061523438 260.073242188 242.0546875 c 1
 298.915039062 251.639648438 l 1
 278.901367188 332.744140625 257.142578125 393.969726562 232.540039062 434.458984375 c 0
 213.455078125 465.8671875 190 489.506835938 159.196289062 489.506835938 c 0
EndSplineSet
EndChar

StartChar: Y
Encoding: 89 89 50
Width: 328
Flags: HW
LayerCount: 2
Fore
SplineSet
312.286132812 316.946289062 m 0
 312.286132812 398.291015625 312.543945312 498.001953125 312.543945312 596.004882812 c 0
 312.543945312 650.82421875 312.48046875 696.375976562 312.28515625 713.237304688 c 1
 272.287109375 712.771484375 l 1
 272.477539062 696.443359375 272.543945312 650.728515625 272.543945312 596.004882812 c 0
 272.543945312 497.608398438 272.286132812 398.944335938 272.286132812 316.946289062 c 0
 272.286132812 211.165039062 269.599609375 114.360351562 262.768554688 40.158203125 c 0
 258.556640625 -5.595703125 252.658203125 -42.8330078125 245.431640625 -67.240234375 c 0
 242.231445312 -78.05078125 238.740234375 -86.2109375 235.806640625 -90.9970703125 c 0
 234.6171875 -92.9375 233.647460938 -94.1630859375 232.962890625 -94.9111328125 c 0
 185.999023438 -65.8779296875 164.30859375 26.2041015625 164.30859375 101.767578125 c 0
 164.30859375 140.393554688 169.916992188 175.723632812 178.516601562 197.0390625 c 0
 186.079101562 215.783203125 192.55078125 216.87109375 192.55078125 216.87109375 c 1
 192.55078125 256.87109375 l 1
 172.270507812 256.87109375 158.138671875 242.857421875 149.407226562 228.291015625 c 0
 131.686523438 198.731445312 124.30859375 152.352539062 124.30859375 101.767578125 c 0
 124.30859375 8.7978515625 150.760742188 -91.2939453125 212.158203125 -129.07421875 c 0
 218.341796875 -132.879882812 225.596679688 -135.567382812 233.649414062 -135.567382812 c 0
 255.393554688 -135.567382812 267.67578125 -117.926757812 274.923828125 -102.548828125 c 0
 284.760742188 -81.6787109375 291.233398438 -52.9208984375 296.458007812 -16.7041015625 c 0
 308.1875 64.6083984375 312.286132812 183.783203125 312.286132812 316.946289062 c 0
158.887695312 390.873046875 m 0
 173.467773438 390.873046875 186.340820312 397.701171875 196.922851562 407.469726562 c 0
 210.206054688 419.733398438 221.383789062 437.266601562 232.286132812 460.266601562 c 0
 256.791992188 511.966796875 279.97265625 593.463867188 302.680664062 709.163085938 c 1
 263.422851562 716.868164062 l 1
 241.05078125 602.875976562 217.9375 523.392578125 196.119140625 477.364257812 c 0
 186.432617188 456.9296875 177.015625 443.521484375 169.802734375 436.862304688 c 0
 163.987304688 431.493164062 160.525390625 430.873046875 158.887695312 430.873046875 c 0
 157.1640625 430.873046875 153.387695312 431.616210938 147.184570312 437.697265625 c 0
 139.524414062 445.208007812 129.849609375 459.983398438 120.178710938 481.598632812 c 0
 98.39453125 530.291015625 76.5009765625 611.6171875 56.5517578125 720.618164062 c 1
 56.5517578125 720.618164062 17.2001953125 713.416015625 17.2060546875 713.381835938 c 0
 37.458984375 602.723632812 59.400390625 519.48828125 83.646484375 465.294921875 c 0
 94.43359375 441.182617188 105.650390625 422.413085938 119.188476562 409.139648438 c 0
 129.9453125 398.592773438 143.32421875 390.873046875 158.887695312 390.873046875 c 0
EndSplineSet
EndChar

StartChar: Z
Encoding: 90 90 51
Width: 373
Flags: HW
LayerCount: 2
Fore
SplineSet
255.688476562 711.90234375 m 0
 216.102539062 711.90234375 204.650390625 707.594726562 162.705078125 707.594726562 c 0
 144.857421875 707.594726562 121.385742188 708.3046875 88.3447265625 710.346679688 c 1
 86.0029296875 672.459960938 l 1
 119.575195312 670.383789062 143.825195312 669.635742188 162.705078125 669.635742188 c 0
 205.342773438 669.635742188 217.373046875 673.943359375 255.688476562 673.943359375 c 0
 261.86328125 673.943359375 268.825195312 673.8125 276.900390625 673.499023438 c 1
 272.422851562 652.92578125 262.048828125 629.681640625 247.17578125 604.935546875 c 0
 198.864257812 524.555664062 108.245117188 434.103515625 59.2353515625 353.19140625 c 0
 39.8701171875 321.21875 25.974609375 289.674804688 25.6748046875 258.188476562 c 2
 25.48828125 238.66015625 l 1
 124.962890625 240.532226562 242.858398438 245.34765625 337.685546875 244.293945312 c 1
 338.107421875 282.250976562 l 1
 255.584960938 283.16796875 155.073242188 279.342773438 66.3994140625 277.428710938 c 1
 70.5390625 293.876953125 79.212890625 312.90625 91.7275390625 333.565429688 c 0
 113.94921875 370.251953125 147.147460938 411.188476562 181.270507812 453.10546875 c 0
 216.782226562 496.729492188 253.296875 541.435546875 279.734375 585.420898438 c 0
 300.819335938 620.502929688 316.078125 655.627929688 317.268554688 690.749023438 c 2
 317.893554688 709.19921875 l 1
 298.938476562 710.37890625 270.859375 711.90234375 255.688476562 711.90234375 c 0
148.68359375 512.163085938 m 1
 148.68359375 512.163085938 149.618164062 489.6328125 149.6328125 489.633789062 c 2
 242.981445312 493.506835938 l 1
 242.981445312 493.506835938 242.046875 516.037109375 242.032226562 516.036132812 c 2
 148.68359375 512.163085938 l 1
EndSplineSet
EndChar
